{"extensionsUsed" : ["KHR_materials_pbrSpecularGlossiness"], "accessors" : [{"bufferView" : 0, "byteOffset" : 0, "componentType" : 5123, "count" : 9216, "type" : "SCALAR", "max" : [1629], "min" : [0]}, {"bufferView" : 1, "byteOffset" : 0, "componentType" : 5126, "count" : 1630, "type" : "VEC3", "max" : [100, 100, 100], "min" : [-100, -100, -100]}, {"bufferView" : 1, "byteOffset" : 12, "componentType" : 5126, "count" : 1630, "type" : "VEC3", "max" : [1.00000441074371, 1.00000441074371, 1.00000441074371], "min" : [-1.00000441074371, -1.00000441074371, -1.00000441074371]}, {"bufferView" : 1, "byteOffset" : 24, "componentType" : 5126, "count" : 1630, "type" : "VEC2", "max" : [0.751264929771423, 0.999942719936371], "min" : [8.38339328765869E-05, 0.000224202871322632]}, {"bufferView" : 1, "byteOffset" : 32, "componentType" : 5126, "count" : 1630, "type" : "VEC4", "max" : [1, 1, 1, 1], "min" : [1, 1, 1, 1]}], "asset" : {"generator" : "Aspose.3D 20.2.1", "version" : "2.0"}, "buffers" : [{"uri" : "buffer.bin", "byteLength" : 540048}], "bufferViews" : [{"buffer" : 0, "byteOffset" : 0, "byteLength" : 18432, "target" : 34963}, {"buffer" : 0, "byteOffset" : 18436, "byteLength" : 78240, "byteStride" : 48, "target" : 34962}, {"buffer" : 0, "byteOffset" : 96680, "byteLength" : 185576}, {"buffer" : 0, "byteOffset" : 282260, "byteLength" : 50540}, {"buffer" : 0, "byteOffset" : 332804, "byteLength" : 185576}, {"buffer" : 0, "byteOffset" : 518384, "byteLength" : 21661}], "images" : [{"mimeType" : "image/png", "bufferView" : 2}, {"mimeType" : "image/png", "bufferView" : 3}, {"mimeType" : "image/png", "bufferView" : 4}, {"mimeType" : "image/png", "bufferView" : 5}], "materials" : [{"extensions" : {"KHR_materials_pbrSpecularGlossiness" : {"diffuseFactor" : [1, 1, 1, 1], "diffuseTexture" : {"index" : 0, "texCoord" : 0}, "specularFactor" : [1, 1, 1], "glossinessFactor" : 1, "specularGlossinessTexture" : {"index" : 1, "texCoord" : 0, "scale" : 1}}}, "pbrMetallicRoughness" : {"baseColorFactor" : [1, 1, 1, 1], "baseColorTexture" : {"index" : 2, "texCoord" : 0}, "metallicFactor" : 1, "roughnessFactor" : 1, "metallicRoughnessTexture" : {"index" : 3, "texCoord" : 0}}, "emissiveFactor" : [0, 0, 0], "alphaMode" : "OPAQUE", "doubleSided" : true}], "meshes" : [{"primitives" : [{"attributes" : {"POSITION" : 1, "NORMAL" : 2, "TEXCOORD_0" : 3, "COLOR" : 4}, "indices" : 0, "material" : 0, "mode" : 4}]}], "nodes" : [{"matrix" : [0.00315314206255211, 2.76843681539032E-06, 0.000594606916906804, 0, 0.000100958832634536, 0.00315960148541171, -0.000550085618761927, 0, -0.000585979831145822, 0.000559266711870142, 0.00310478957627546, 0, 0.0648728534579277, 0.0648717507719994, -0.880849659442902, 1], "mesh" : 0, "name" : "node_id5"}, {"children" : [0], "name" : "root"}], "samplers" : [{"magFilter" : 9728, "minFilter" : 9985, "wrapS" : 10497, "wrapT" : 10497}, {"magFilter" : 9728, "minFilter" : 9985, "wrapS" : 10497, "wrapT" : 10497}, {"magFilter" : 9728, "minFilter" : 9985, "wrapS" : 10497, "wrapT" : 10497}, {"magFilter" : 9728, "minFilter" : 9985, "wrapS" : 10497, "wrapT" : 10497}], "scene" : 0, "scenes" : [{"nodes" : [1]}], "textures" : [{"sampler" : 0, "source" : 0}, {"sampler" : 1, "source" : 1}, {"sampler" : 2, "source" : 2}, {"sampler" : 3, "source" : 3}]}