{"extensionsUsed" : ["KHR_materials_pbrSpecularGlossiness"], "accessors" : [{"bufferView" : 0, "byteOffset" : 0, "componentType" : 5123, "count" : 9216, "type" : "SCALAR", "max" : [1537], "min" : [0]}, {"bufferView" : 1, "byteOffset" : 0, "componentType" : 5126, "count" : 1538, "type" : "VEC3", "max" : [100, 100, 100], "min" : [-100, -100, -100]}, {"bufferView" : 1, "byteOffset" : 12, "componentType" : 5126, "count" : 1538, "type" : "VEC3", "max" : [1.00000441074371, 1.00000441074371, 1.00000441074371], "min" : [-1.00000441074371, -1.00000441074371, -1.00000441074371]}, {"bufferView" : 0, "byteOffset" : 18432, "componentType" : 5123, "count" : 9216, "type" : "SCALAR", "max" : [1537], "min" : [0]}, {"bufferView" : 6, "byteOffset" : 0, "componentType" : 5126, "count" : 1538, "type" : "VEC3", "max" : [100, 100, 100], "min" : [-100, -100, -100]}, {"bufferView" : 6, "byteOffset" : 12, "componentType" : 5126, "count" : 1538, "type" : "VEC3", "max" : [1.00000441074371, 1.00000441074371, 1.00000441074371], "min" : [-1.00000441074371, -1.00000441074371, -1.00000441074371]}, {"bufferView" : 0, "byteOffset" : 36864, "componentType" : 5123, "count" : 9216, "type" : "SCALAR", "max" : [1537], "min" : [0]}, {"bufferView" : 11, "byteOffset" : 0, "componentType" : 5126, "count" : 1538, "type" : "VEC3", "max" : [100, 100, 100], "min" : [-100, -100, -100]}, {"bufferView" : 11, "byteOffset" : 12, "componentType" : 5126, "count" : 1538, "type" : "VEC3", "max" : [1.00000441074371, 1.00000441074371, 1.00000441074371], "min" : [-1.00000441074371, -1.00000441074371, -1.00000441074371]}, {"bufferView" : 0, "byteOffset" : 55296, "componentType" : 5123, "count" : 38400, "type" : "SCALAR", "max" : [6319], "min" : [0]}, {"bufferView" : 16, "byteOffset" : 0, "componentType" : 5126, "count" : 6320, "type" : "VEC3", "max" : [100, 100, 34], "min" : [-100, -100, -34]}, {"bufferView" : 16, "byteOffset" : 12, "componentType" : 5126, "count" : 6320, "type" : "VEC3", "max" : [1.00000441074371, 1.00000441074371, 1.00000441074371], "min" : [-1.00000441074371, -1.00000441074371, -1.00000441074371]}, {"bufferView" : 0, "byteOffset" : 132096, "componentType" : 5123, "count" : 1260, "type" : "SCALAR", "max" : [211], "min" : [0]}, {"bufferView" : 21, "byteOffset" : 0, "componentType" : 5126, "count" : 212, "type" : "VEC3", "max" : [-125.621475219727, 108.173767089844, 210.0625], "min" : [-146.181533813477, 60.2564506530762, 200.171768188477]}, {"bufferView" : 21, "byteOffset" : 12, "componentType" : 5126, "count" : 212, "type" : "VEC3", "max" : [0.993677616119385, 0.998491764068604, 1.00000441074371], "min" : [-0.993677616119385, -0.998491764068604, -0.978151857852936]}, {"bufferView" : 0, "byteOffset" : 134616, "componentType" : 5123, "count" : 1260, "type" : "SCALAR", "max" : [211], "min" : [0]}, {"bufferView" : 26, "byteOffset" : 0, "componentType" : 5126, "count" : 212, "type" : "VEC3", "max" : [-102.512054443359, 103.558471679688, 210.0625], "min" : [-149.147613525391, 81.1795349121094, 200.171768188477]}, {"bufferView" : 26, "byteOffset" : 12, "componentType" : 5126, "count" : 212, "type" : "VEC3", "max" : [0.994258284568787, 0.989594697952271, 1.00000441074371], "min" : [-0.994258344173431, -0.989594697952271, -0.978151857852936]}, {"bufferView" : 0, "byteOffset" : 137136, "componentType" : 5123, "count" : 1260, "type" : "SCALAR", "max" : [211], "min" : [0]}, {"bufferView" : 31, "byteOffset" : 0, "componentType" : 5126, "count" : 212, "type" : "VEC3", "max" : [-104.493537902832, 115.095024108887, 210.0625], "min" : [-126.287292480469, 64.5888061523438, 200.171768188477]}, {"bufferView" : 31, "byteOffset" : 12, "componentType" : 5126, "count" : 212, "type" : "VEC3", "max" : [0.993057310581207, 0.997840583324432, 1.00000441074371], "min" : [-0.993057310581207, -0.997840523719788, -0.978151798248291]}, {"bufferView" : 0, "byteOffset" : 139656, "componentType" : 5123, "count" : 1260, "type" : "SCALAR", "max" : [211], "min" : [0]}, {"bufferView" : 36, "byteOffset" : 0, "componentType" : 5126, "count" : 212, "type" : "VEC3", "max" : [81.4117126464844, 124.600547790527, 210.0625], "min" : [63.7988128662109, 75.0785751342773, 200.171768188477]}, {"bufferView" : 36, "byteOffset" : 12, "componentType" : 5126, "count" : 212, "type" : "VEC3", "max" : [0.994225740432739, 0.999236464500427, 1.00000441074371], "min" : [-0.994225680828094, -0.999236464500427, -0.978151857852936]}, {"bufferView" : 0, "byteOffset" : 142176, "componentType" : 5123, "count" : 1260, "type" : "SCALAR", "max" : [211], "min" : [0]}, {"bufferView" : 41, "byteOffset" : 0, "componentType" : 5126, "count" : 212, "type" : "VEC3", "max" : [104.654228210449, 119.387245178223, 210.0625], "min" : [60.5841064453125, 94.6242828369141, 200.171768188477]}, {"bufferView" : 41, "byteOffset" : 12, "componentType" : 5126, "count" : 212, "type" : "VEC3", "max" : [0.998304605484009, 0.994725525379181, 1.00000441074371], "min" : [-0.998304605484009, -0.99472564458847, -0.978151857852936]}, {"bufferView" : 0, "byteOffset" : 144696, "componentType" : 5123, "count" : 1260, "type" : "SCALAR", "max" : [211], "min" : [0]}, {"bufferView" : 46, "byteOffset" : 0, "componentType" : 5126, "count" : 212, "type" : "VEC3", "max" : [106.380638122559, 134.500854492188, 210.0625], "min" : [87.7751693725586, 84.2180557250977, 200.171768188477]}, {"bufferView" : 46, "byteOffset" : 12, "componentType" : 5126, "count" : 212, "type" : "VEC3", "max" : [0.994702219963074, 0.999667644500732, 1.00000441074371], "min" : [-0.994702160358429, -0.999667644500732, -0.978151857852936]}], "asset" : {"generator" : "Aspose.3D 20.2.1", "version" : "2.0"}, "buffers" : [{"uri" : "buffer.bin", "byteLength" : 446764}], "bufferViews" : [{"buffer" : 0, "byteOffset" : 0, "byteLength" : 147216, "target" : 34963}, {"buffer" : 0, "byteOffset" : 147220, "byteLength" : 36912, "byteStride" : 24, "target" : 34962}, {"buffer" : 0, "byteOffset" : 184136, "byteLength" : 163}, {"buffer" : 0, "byteOffset" : 184300, "byteLength" : 162}, {"buffer" : 0, "byteOffset" : 184464, "byteLength" : 163}, {"buffer" : 0, "byteOffset" : 184628, "byteLength" : 161}, {"buffer" : 0, "byteOffset" : 184792, "byteLength" : 36912, "byteStride" : 24, "target" : 34962}, {"buffer" : 0, "byteOffset" : 221708, "byteLength" : 163}, {"buffer" : 0, "byteOffset" : 221872, "byteLength" : 162}, {"buffer" : 0, "byteOffset" : 222036, "byteLength" : 163}, {"buffer" : 0, "byteOffset" : 222200, "byteLength" : 161}, {"buffer" : 0, "byteOffset" : 222364, "byteLength" : 36912, "byteStride" : 24, "target" : 34962}, {"buffer" : 0, "byteOffset" : 259280, "byteLength" : 163}, {"buffer" : 0, "byteOffset" : 259444, "byteLength" : 162}, {"buffer" : 0, "byteOffset" : 259608, "byteLength" : 163}, {"buffer" : 0, "byteOffset" : 259772, "byteLength" : 161}, {"buffer" : 0, "byteOffset" : 259936, "byteLength" : 151680, "byteStride" : 24, "target" : 34962}, {"buffer" : 0, "byteOffset" : 411620, "byteLength" : 161}, {"buffer" : 0, "byteOffset" : 411784, "byteLength" : 162}, {"buffer" : 0, "byteOffset" : 411948, "byteLength" : 161}, {"buffer" : 0, "byteOffset" : 412112, "byteLength" : 161}, {"buffer" : 0, "byteOffset" : 412276, "byteLength" : 5088, "byteStride" : 24, "target" : 34962}, {"buffer" : 0, "byteOffset" : 417368, "byteLength" : 161}, {"buffer" : 0, "byteOffset" : 417532, "byteLength" : 162}, {"buffer" : 0, "byteOffset" : 417696, "byteLength" : 161}, {"buffer" : 0, "byteOffset" : 417860, "byteLength" : 161}, {"buffer" : 0, "byteOffset" : 418024, "byteLength" : 5088, "byteStride" : 24, "target" : 34962}, {"buffer" : 0, "byteOffset" : 423116, "byteLength" : 161}, {"buffer" : 0, "byteOffset" : 423280, "byteLength" : 162}, {"buffer" : 0, "byteOffset" : 423444, "byteLength" : 161}, {"buffer" : 0, "byteOffset" : 423608, "byteLength" : 161}, {"buffer" : 0, "byteOffset" : 423772, "byteLength" : 5088, "byteStride" : 24, "target" : 34962}, {"buffer" : 0, "byteOffset" : 428864, "byteLength" : 161}, {"buffer" : 0, "byteOffset" : 429028, "byteLength" : 162}, {"buffer" : 0, "byteOffset" : 429192, "byteLength" : 161}, {"buffer" : 0, "byteOffset" : 429356, "byteLength" : 161}, {"buffer" : 0, "byteOffset" : 429520, "byteLength" : 5088, "byteStride" : 24, "target" : 34962}, {"buffer" : 0, "byteOffset" : 434612, "byteLength" : 161}, {"buffer" : 0, "byteOffset" : 434776, "byteLength" : 162}, {"buffer" : 0, "byteOffset" : 434940, "byteLength" : 161}, {"buffer" : 0, "byteOffset" : 435104, "byteLength" : 161}, {"buffer" : 0, "byteOffset" : 435268, "byteLength" : 5088, "byteStride" : 24, "target" : 34962}, {"buffer" : 0, "byteOffset" : 440360, "byteLength" : 161}, {"buffer" : 0, "byteOffset" : 440524, "byteLength" : 162}, {"buffer" : 0, "byteOffset" : 440688, "byteLength" : 161}, {"buffer" : 0, "byteOffset" : 440852, "byteLength" : 161}, {"buffer" : 0, "byteOffset" : 441016, "byteLength" : 5088, "byteStride" : 24, "target" : 34962}, {"buffer" : 0, "byteOffset" : 446108, "byteLength" : 161}, {"buffer" : 0, "byteOffset" : 446272, "byteLength" : 162}, {"buffer" : 0, "byteOffset" : 446436, "byteLength" : 161}, {"buffer" : 0, "byteOffset" : 446600, "byteLength" : 161}], "images" : [{"mimeType" : "image/png", "bufferView" : 2}, {"mimeType" : "image/png", "bufferView" : 3}, {"mimeType" : "image/png", "bufferView" : 4}, {"mimeType" : "image/png", "bufferView" : 5}, {"mimeType" : "image/png", "bufferView" : 7}, {"mimeType" : "image/png", "bufferView" : 8}, {"mimeType" : "image/png", "bufferView" : 9}, {"mimeType" : "image/png", "bufferView" : 10}, {"mimeType" : "image/png", "bufferView" : 12}, {"mimeType" : "image/png", "bufferView" : 13}, {"mimeType" : "image/png", "bufferView" : 14}, {"mimeType" : "image/png", "bufferView" : 15}, {"mimeType" : "image/png", "bufferView" : 17}, {"mimeType" : "image/png", "bufferView" : 18}, {"mimeType" : "image/png", "bufferView" : 19}, {"mimeType" : "image/png", "bufferView" : 20}, {"mimeType" : "image/png", "bufferView" : 22}, {"mimeType" : "image/png", "bufferView" : 23}, {"mimeType" : "image/png", "bufferView" : 24}, {"mimeType" : "image/png", "bufferView" : 25}, {"mimeType" : "image/png", "bufferView" : 27}, {"mimeType" : "image/png", "bufferView" : 28}, {"mimeType" : "image/png", "bufferView" : 29}, {"mimeType" : "image/png", "bufferView" : 30}, {"mimeType" : "image/png", "bufferView" : 32}, {"mimeType" : "image/png", "bufferView" : 33}, {"mimeType" : "image/png", "bufferView" : 34}, {"mimeType" : "image/png", "bufferView" : 35}, {"mimeType" : "image/png", "bufferView" : 37}, {"mimeType" : "image/png", "bufferView" : 38}, {"mimeType" : "image/png", "bufferView" : 39}, {"mimeType" : "image/png", "bufferView" : 40}, {"mimeType" : "image/png", "bufferView" : 42}, {"mimeType" : "image/png", "bufferView" : 43}, {"mimeType" : "image/png", "bufferView" : 44}, {"mimeType" : "image/png", "bufferView" : 45}, {"mimeType" : "image/png", "bufferView" : 47}, {"mimeType" : "image/png", "bufferView" : 48}, {"mimeType" : "image/png", "bufferView" : 49}, {"mimeType" : "image/png", "bufferView" : 50}], "materials" : [{"extensions" : {"KHR_materials_pbrSpecularGlossiness" : {"diffuseFactor" : [1, 1, 1, 1], "diffuseTexture" : {"index" : 0, "texCoord" : 0}, "specularFactor" : [1, 1, 1], "glossinessFactor" : 1, "specularGlossinessTexture" : {"index" : 1, "texCoord" : 0, "scale" : 1}}}, "pbrMetallicRoughness" : {"baseColorFactor" : [1, 1, 1, 1], "baseColorTexture" : {"index" : 2, "texCoord" : 0}, "metallicFactor" : 1, "roughnessFactor" : 1, "metallicRoughnessTexture" : {"index" : 3, "texCoord" : 0}}, "emissiveFactor" : [0, 0, 0], "alphaMode" : "OPAQUE", "doubleSided" : true}, {"extensions" : {"KHR_materials_pbrSpecularGlossiness" : {"diffuseFactor" : [1, 1, 1, 1], "diffuseTexture" : {"index" : 4, "texCoord" : 0}, "specularFactor" : [1, 1, 1], "glossinessFactor" : 1, "specularGlossinessTexture" : {"index" : 5, "texCoord" : 0, "scale" : 1}}}, "pbrMetallicRoughness" : {"baseColorFactor" : [1, 1, 1, 1], "baseColorTexture" : {"index" : 6, "texCoord" : 0}, "metallicFactor" : 1, "roughnessFactor" : 1, "metallicRoughnessTexture" : {"index" : 7, "texCoord" : 0}}, "emissiveFactor" : [0, 0, 0], "alphaMode" : "OPAQUE", "doubleSided" : true}, {"extensions" : {"KHR_materials_pbrSpecularGlossiness" : {"diffuseFactor" : [1, 1, 1, 1], "diffuseTexture" : {"index" : 8, "texCoord" : 0}, "specularFactor" : [1, 1, 1], "glossinessFactor" : 1, "specularGlossinessTexture" : {"index" : 9, "texCoord" : 0, "scale" : 1}}}, "pbrMetallicRoughness" : {"baseColorFactor" : [1, 1, 1, 1], "baseColorTexture" : {"index" : 10, "texCoord" : 0}, "metallicFactor" : 1, "roughnessFactor" : 1, "metallicRoughnessTexture" : {"index" : 11, "texCoord" : 0}}, "emissiveFactor" : [0, 0, 0], "alphaMode" : "OPAQUE", "doubleSided" : true}, {"extensions" : {"KHR_materials_pbrSpecularGlossiness" : {"diffuseFactor" : [1, 1, 1, 1], "diffuseTexture" : {"index" : 12, "texCoord" : 0}, "specularFactor" : [1, 1, 1], "glossinessFactor" : 1, "specularGlossinessTexture" : {"index" : 13, "texCoord" : 0, "scale" : 1}}}, "pbrMetallicRoughness" : {"baseColorFactor" : [1, 1, 1, 1], "baseColorTexture" : {"index" : 14, "texCoord" : 0}, "metallicFactor" : 1, "roughnessFactor" : 1, "metallicRoughnessTexture" : {"index" : 15, "texCoord" : 0}}, "emissiveFactor" : [0, 0, 0], "alphaMode" : "OPAQUE", "doubleSided" : true}, {"extensions" : {"KHR_materials_pbrSpecularGlossiness" : {"diffuseFactor" : [1, 1, 1, 1], "diffuseTexture" : {"index" : 16, "texCoord" : 0}, "specularFactor" : [1, 1, 1], "glossinessFactor" : 1, "specularGlossinessTexture" : {"index" : 17, "texCoord" : 0, "scale" : 1}}}, "pbrMetallicRoughness" : {"baseColorFactor" : [1, 1, 1, 1], "baseColorTexture" : {"index" : 18, "texCoord" : 0}, "metallicFactor" : 1, "roughnessFactor" : 1, "metallicRoughnessTexture" : {"index" : 19, "texCoord" : 0}}, "emissiveFactor" : [0, 0, 0], "alphaMode" : "OPAQUE", "doubleSided" : true}, {"extensions" : {"KHR_materials_pbrSpecularGlossiness" : {"diffuseFactor" : [1, 1, 1, 1], "diffuseTexture" : {"index" : 20, "texCoord" : 0}, "specularFactor" : [1, 1, 1], "glossinessFactor" : 1, "specularGlossinessTexture" : {"index" : 21, "texCoord" : 0, "scale" : 1}}}, "pbrMetallicRoughness" : {"baseColorFactor" : [1, 1, 1, 1], "baseColorTexture" : {"index" : 22, "texCoord" : 0}, "metallicFactor" : 1, "roughnessFactor" : 1, "metallicRoughnessTexture" : {"index" : 23, "texCoord" : 0}}, "emissiveFactor" : [0, 0, 0], "alphaMode" : "OPAQUE", "doubleSided" : true}, {"extensions" : {"KHR_materials_pbrSpecularGlossiness" : {"diffuseFactor" : [1, 1, 1, 1], "diffuseTexture" : {"index" : 24, "texCoord" : 0}, "specularFactor" : [1, 1, 1], "glossinessFactor" : 1, "specularGlossinessTexture" : {"index" : 25, "texCoord" : 0, "scale" : 1}}}, "pbrMetallicRoughness" : {"baseColorFactor" : [1, 1, 1, 1], "baseColorTexture" : {"index" : 26, "texCoord" : 0}, "metallicFactor" : 1, "roughnessFactor" : 1, "metallicRoughnessTexture" : {"index" : 27, "texCoord" : 0}}, "emissiveFactor" : [0, 0, 0], "alphaMode" : "OPAQUE", "doubleSided" : true}, {"extensions" : {"KHR_materials_pbrSpecularGlossiness" : {"diffuseFactor" : [1, 1, 1, 1], "diffuseTexture" : {"index" : 28, "texCoord" : 0}, "specularFactor" : [1, 1, 1], "glossinessFactor" : 1, "specularGlossinessTexture" : {"index" : 29, "texCoord" : 0, "scale" : 1}}}, "pbrMetallicRoughness" : {"baseColorFactor" : [1, 1, 1, 1], "baseColorTexture" : {"index" : 30, "texCoord" : 0}, "metallicFactor" : 1, "roughnessFactor" : 1, "metallicRoughnessTexture" : {"index" : 31, "texCoord" : 0}}, "emissiveFactor" : [0, 0, 0], "alphaMode" : "OPAQUE", "doubleSided" : true}, {"extensions" : {"KHR_materials_pbrSpecularGlossiness" : {"diffuseFactor" : [1, 1, 1, 1], "diffuseTexture" : {"index" : 32, "texCoord" : 0}, "specularFactor" : [1, 1, 1], "glossinessFactor" : 1, "specularGlossinessTexture" : {"index" : 33, "texCoord" : 0, "scale" : 1}}}, "pbrMetallicRoughness" : {"baseColorFactor" : [1, 1, 1, 1], "baseColorTexture" : {"index" : 34, "texCoord" : 0}, "metallicFactor" : 1, "roughnessFactor" : 1, "metallicRoughnessTexture" : {"index" : 35, "texCoord" : 0}}, "emissiveFactor" : [0, 0, 0], "alphaMode" : "OPAQUE", "doubleSided" : true}, {"extensions" : {"KHR_materials_pbrSpecularGlossiness" : {"diffuseFactor" : [1, 1, 1, 1], "diffuseTexture" : {"index" : 36, "texCoord" : 0}, "specularFactor" : [1, 1, 1], "glossinessFactor" : 1, "specularGlossinessTexture" : {"index" : 37, "texCoord" : 0, "scale" : 1}}}, "pbrMetallicRoughness" : {"baseColorFactor" : [1, 1, 1, 1], "baseColorTexture" : {"index" : 38, "texCoord" : 0}, "metallicFactor" : 1, "roughnessFactor" : 1, "metallicRoughnessTexture" : {"index" : 39, "texCoord" : 0}}, "emissiveFactor" : [0, 0, 0], "alphaMode" : "OPAQUE", "doubleSided" : true}], "meshes" : [{"primitives" : [{"attributes" : {"POSITION" : 1, "NORMAL" : 2}, "indices" : 0, "material" : 0, "mode" : 4}]}, {"primitives" : [{"attributes" : {"POSITION" : 4, "NORMAL" : 5}, "indices" : 3, "material" : 1, "mode" : 4}]}, {"primitives" : [{"attributes" : {"POSITION" : 7, "NORMAL" : 8}, "indices" : 6, "material" : 2, "mode" : 4}]}, {"primitives" : [{"attributes" : {"POSITION" : 10, "NORMAL" : 11}, "indices" : 9, "material" : 3, "mode" : 4}]}, {"primitives" : [{"attributes" : {"POSITION" : 13, "NORMAL" : 14}, "indices" : 12, "material" : 4, "mode" : 4}]}, {"primitives" : [{"attributes" : {"POSITION" : 16, "NORMAL" : 17}, "indices" : 15, "material" : 5, "mode" : 4}]}, {"primitives" : [{"attributes" : {"POSITION" : 19, "NORMAL" : 20}, "indices" : 18, "material" : 6, "mode" : 4}]}, {"primitives" : [{"attributes" : {"POSITION" : 22, "NORMAL" : 23}, "indices" : 21, "material" : 7, "mode" : 4}]}, {"primitives" : [{"attributes" : {"POSITION" : 25, "NORMAL" : 26}, "indices" : 24, "material" : 8, "mode" : 4}]}, {"primitives" : [{"attributes" : {"POSITION" : 28, "NORMAL" : 29}, "indices" : 27, "material" : 9, "mode" : 4}]}], "nodes" : [{"matrix" : [0.00100000004749745, 0, 0, 0, 0, 0.00100000004749745, 0, 0, 0, 0, 0.00100000004749745, 0, -0.00691619608551264, -0.0016757813282311, 0.0231015644967556, 1], "mesh" : 0}, {"matrix" : [0.000677633564919233, 0, 0, 0, 0, 0.000677633564919233, 0, 0, 0, 0, 0.000677633564919233, 0, -0.110211826860905, 0.0859746113419533, 0.0196210946887732, 1], "mesh" : 1}, {"matrix" : [0.000709099927917123, 0, 0, 0, 0, 0.000709099927917123, 0, 0, 0, 0, 0.000709099927917123, 0, 0.0900100544095039, 0.0905908271670341, 0.0164736341685057, 1], "mesh" : 2}, {"matrix" : [0.000277054292382672, 0, 0, 0, 0, 0.000277054292382672, 0, 0, 0, 0, 0.000277054292382672, 0, -0.00833731889724731, 0.0014257812872529, 0.119022957980633, 1], "mesh" : 3}, {"mesh" : 4}, {"mesh" : 5}, {"mesh" : 6}, {"mesh" : 7}, {"mesh" : 8}, {"mesh" : 9}, {"children" : [4, 5, 6, 7, 8, 9], "matrix" : [0.00100000004749745, 0, 0, 0, 0, 0.00100000004749745, 0, 0, 0, 0, 0.00100000004749745, 0, 0.00683019869029522, -7.24792528217222E-07, -0.120103947818279, 1], "name" : "node_id96"}, {"children" : [0, 1, 2, 3, 10], "name" : "root"}], "samplers" : [{"magFilter" : 9728, "minFilter" : 9985, "wrapS" : 10497, "wrapT" : 10497}, {"magFilter" : 9728, "minFilter" : 9985, "wrapS" : 10497, "wrapT" : 10497}, {"magFilter" : 9728, "minFilter" : 9985, "wrapS" : 10497, "wrapT" : 10497}, {"magFilter" : 9728, "minFilter" : 9985, "wrapS" : 10497, "wrapT" : 10497}, {"magFilter" : 9728, "minFilter" : 9985, "wrapS" : 10497, "wrapT" : 10497}, {"magFilter" : 9728, "minFilter" : 9985, "wrapS" : 10497, "wrapT" : 10497}, {"magFilter" : 9728, "minFilter" : 9985, "wrapS" : 10497, "wrapT" : 10497}, {"magFilter" : 9728, "minFilter" : 9985, "wrapS" : 10497, "wrapT" : 10497}, {"magFilter" : 9728, "minFilter" : 9985, "wrapS" : 10497, "wrapT" : 10497}, {"magFilter" : 9728, "minFilter" : 9985, "wrapS" : 10497, "wrapT" : 10497}, {"magFilter" : 9728, "minFilter" : 9985, "wrapS" : 10497, "wrapT" : 10497}, {"magFilter" : 9728, "minFilter" : 9985, "wrapS" : 10497, "wrapT" : 10497}, {"magFilter" : 9728, "minFilter" : 9985, "wrapS" : 10497, "wrapT" : 10497}, {"magFilter" : 9728, "minFilter" : 9985, "wrapS" : 10497, "wrapT" : 10497}, {"magFilter" : 9728, "minFilter" : 9985, "wrapS" : 10497, "wrapT" : 10497}, {"magFilter" : 9728, "minFilter" : 9985, "wrapS" : 10497, "wrapT" : 10497}, {"magFilter" : 9728, "minFilter" : 9985, "wrapS" : 10497, "wrapT" : 10497}, {"magFilter" : 9728, "minFilter" : 9985, "wrapS" : 10497, "wrapT" : 10497}, {"magFilter" : 9728, "minFilter" : 9985, "wrapS" : 10497, "wrapT" : 10497}, {"magFilter" : 9728, "minFilter" : 9985, "wrapS" : 10497, "wrapT" : 10497}, {"magFilter" : 9728, "minFilter" : 9985, "wrapS" : 10497, "wrapT" : 10497}, {"magFilter" : 9728, "minFilter" : 9985, "wrapS" : 10497, "wrapT" : 10497}, {"magFilter" : 9728, "minFilter" : 9985, "wrapS" : 10497, "wrapT" : 10497}, {"magFilter" : 9728, "minFilter" : 9985, "wrapS" : 10497, "wrapT" : 10497}, {"magFilter" : 9728, "minFilter" : 9985, "wrapS" : 10497, "wrapT" : 10497}, {"magFilter" : 9728, "minFilter" : 9985, "wrapS" : 10497, "wrapT" : 10497}, {"magFilter" : 9728, "minFilter" : 9985, "wrapS" : 10497, "wrapT" : 10497}, {"magFilter" : 9728, "minFilter" : 9985, "wrapS" : 10497, "wrapT" : 10497}, {"magFilter" : 9728, "minFilter" : 9985, "wrapS" : 10497, "wrapT" : 10497}, {"magFilter" : 9728, "minFilter" : 9985, "wrapS" : 10497, "wrapT" : 10497}, {"magFilter" : 9728, "minFilter" : 9985, "wrapS" : 10497, "wrapT" : 10497}, {"magFilter" : 9728, "minFilter" : 9985, "wrapS" : 10497, "wrapT" : 10497}, {"magFilter" : 9728, "minFilter" : 9985, "wrapS" : 10497, "wrapT" : 10497}, {"magFilter" : 9728, "minFilter" : 9985, "wrapS" : 10497, "wrapT" : 10497}, {"magFilter" : 9728, "minFilter" : 9985, "wrapS" : 10497, "wrapT" : 10497}, {"magFilter" : 9728, "minFilter" : 9985, "wrapS" : 10497, "wrapT" : 10497}, {"magFilter" : 9728, "minFilter" : 9985, "wrapS" : 10497, "wrapT" : 10497}, {"magFilter" : 9728, "minFilter" : 9985, "wrapS" : 10497, "wrapT" : 10497}, {"magFilter" : 9728, "minFilter" : 9985, "wrapS" : 10497, "wrapT" : 10497}, {"magFilter" : 9728, "minFilter" : 9985, "wrapS" : 10497, "wrapT" : 10497}], "scene" : 0, "scenes" : [{"nodes" : [11]}], "textures" : [{"sampler" : 0, "source" : 0}, {"sampler" : 1, "source" : 1}, {"sampler" : 2, "source" : 2}, {"sampler" : 3, "source" : 3}, {"sampler" : 4, "source" : 4}, {"sampler" : 5, "source" : 5}, {"sampler" : 6, "source" : 6}, {"sampler" : 7, "source" : 7}, {"sampler" : 8, "source" : 8}, {"sampler" : 9, "source" : 9}, {"sampler" : 10, "source" : 10}, {"sampler" : 11, "source" : 11}, {"sampler" : 12, "source" : 12}, {"sampler" : 13, "source" : 13}, {"sampler" : 14, "source" : 14}, {"sampler" : 15, "source" : 15}, {"sampler" : 16, "source" : 16}, {"sampler" : 17, "source" : 17}, {"sampler" : 18, "source" : 18}, {"sampler" : 19, "source" : 19}, {"sampler" : 20, "source" : 20}, {"sampler" : 21, "source" : 21}, {"sampler" : 22, "source" : 22}, {"sampler" : 23, "source" : 23}, {"sampler" : 24, "source" : 24}, {"sampler" : 25, "source" : 25}, {"sampler" : 26, "source" : 26}, {"sampler" : 27, "source" : 27}, {"sampler" : 28, "source" : 28}, {"sampler" : 29, "source" : 29}, {"sampler" : 30, "source" : 30}, {"sampler" : 31, "source" : 31}, {"sampler" : 32, "source" : 32}, {"sampler" : 33, "source" : 33}, {"sampler" : 34, "source" : 34}, {"sampler" : 35, "source" : 35}, {"sampler" : 36, "source" : 36}, {"sampler" : 37, "source" : 37}, {"sampler" : 38, "source" : 38}, {"sampler" : 39, "source" : 39}]}