{"extensionsUsed" : ["KHR_materials_pbrSpecularGlossiness"], "accessors" : [{"bufferView" : 0, "byteOffset" : 0, "componentType" : 5123, "count" : 9216, "type" : "SCALAR", "max" : [1537], "min" : [0]}, {"bufferView" : 1, "byteOffset" : 0, "componentType" : 5126, "count" : 1538, "type" : "VEC3", "max" : [100, 100, 100], "min" : [-100, -100, -100]}, {"bufferView" : 1, "byteOffset" : 12, "componentType" : 5126, "count" : 1538, "type" : "VEC3", "max" : [1.00000441074371, 1.00000441074371, 1.00000441074371], "min" : [-1.00000441074371, -1.00000441074371, -1.00000441074371]}, {"bufferView" : 0, "byteOffset" : 18432, "componentType" : 5123, "count" : 38400, "type" : "SCALAR", "max" : [6319], "min" : [0]}, {"bufferView" : 6, "byteOffset" : 0, "componentType" : 5126, "count" : 6320, "type" : "VEC3", "max" : [100, 100, 34], "min" : [-100, -100, -34]}, {"bufferView" : 6, "byteOffset" : 12, "componentType" : 5126, "count" : 6320, "type" : "VEC3", "max" : [1.00000441074371, 1.00000441074371, 1.00000441074371], "min" : [-1.00000441074371, -1.00000441074371, -1.00000441074371]}], "asset" : {"generator" : "Aspose.3D 20.2.1", "version" : "2.0"}, "buffers" : [{"uri" : "buffer.bin", "byteLength" : 285148}], "bufferViews" : [{"buffer" : 0, "byteOffset" : 0, "byteLength" : 95232, "target" : 34963}, {"buffer" : 0, "byteOffset" : 95236, "byteLength" : 36912, "byteStride" : 24, "target" : 34962}, {"buffer" : 0, "byteOffset" : 132152, "byteLength" : 163}, {"buffer" : 0, "byteOffset" : 132316, "byteLength" : 162}, {"buffer" : 0, "byteOffset" : 132480, "byteLength" : 163}, {"buffer" : 0, "byteOffset" : 132644, "byteLength" : 161}, {"buffer" : 0, "byteOffset" : 132808, "byteLength" : 151680, "byteStride" : 24, "target" : 34962}, {"buffer" : 0, "byteOffset" : 284492, "byteLength" : 161}, {"buffer" : 0, "byteOffset" : 284656, "byteLength" : 162}, {"buffer" : 0, "byteOffset" : 284820, "byteLength" : 161}, {"buffer" : 0, "byteOffset" : 284984, "byteLength" : 161}], "images" : [{"mimeType" : "image/png", "bufferView" : 2}, {"mimeType" : "image/png", "bufferView" : 3}, {"mimeType" : "image/png", "bufferView" : 4}, {"mimeType" : "image/png", "bufferView" : 5}, {"mimeType" : "image/png", "bufferView" : 7}, {"mimeType" : "image/png", "bufferView" : 8}, {"mimeType" : "image/png", "bufferView" : 9}, {"mimeType" : "image/png", "bufferView" : 10}], "materials" : [{"extensions" : {"KHR_materials_pbrSpecularGlossiness" : {"diffuseFactor" : [1, 1, 1, 1], "diffuseTexture" : {"index" : 0, "texCoord" : 0}, "specularFactor" : [1, 1, 1], "glossinessFactor" : 1, "specularGlossinessTexture" : {"index" : 1, "texCoord" : 0, "scale" : 1}}}, "pbrMetallicRoughness" : {"baseColorFactor" : [1, 1, 1, 1], "baseColorTexture" : {"index" : 2, "texCoord" : 0}, "metallicFactor" : 1, "roughnessFactor" : 1, "metallicRoughnessTexture" : {"index" : 3, "texCoord" : 0}}, "emissiveFactor" : [0, 0, 0], "alphaMode" : "OPAQUE", "doubleSided" : true}, {"extensions" : {"KHR_materials_pbrSpecularGlossiness" : {"diffuseFactor" : [1, 1, 1, 1], "diffuseTexture" : {"index" : 4, "texCoord" : 0}, "specularFactor" : [1, 1, 1], "glossinessFactor" : 1, "specularGlossinessTexture" : {"index" : 5, "texCoord" : 0, "scale" : 1}}}, "pbrMetallicRoughness" : {"baseColorFactor" : [1, 1, 1, 1], "baseColorTexture" : {"index" : 6, "texCoord" : 0}, "metallicFactor" : 1, "roughnessFactor" : 1, "metallicRoughnessTexture" : {"index" : 7, "texCoord" : 0}}, "emissiveFactor" : [0, 0, 0], "alphaMode" : "OPAQUE", "doubleSided" : true}], "meshes" : [{"primitives" : [{"attributes" : {"POSITION" : 1, "NORMAL" : 2}, "indices" : 0, "material" : 0, "mode" : 4}]}, {"primitives" : [{"attributes" : {"POSITION" : 4, "NORMAL" : 5}, "indices" : 3, "material" : 1, "mode" : 4}]}], "nodes" : [{"matrix" : [0.00100000004749745, 0, 0, 0, 0, 0.00100000004749745, 0, 0, 0, 0, 0.00100000004749745, 0, -0.00691619608551264, -0.0016757813282311, 0.0231015644967556, 1], "mesh" : 0}, {"matrix" : [0.000277054292382672, 0, 0, 0, 0, 0.000277054292382672, 0, 0, 0, 0, 0.000277054292382672, 0, -0.00833731889724731, 0.0014257812872529, 0.119022957980633, 1], "mesh" : 1}, {"children" : [0, 1], "name" : "root"}], "samplers" : [{"magFilter" : 9728, "minFilter" : 9985, "wrapS" : 10497, "wrapT" : 10497}, {"magFilter" : 9728, "minFilter" : 9985, "wrapS" : 10497, "wrapT" : 10497}, {"magFilter" : 9728, "minFilter" : 9985, "wrapS" : 10497, "wrapT" : 10497}, {"magFilter" : 9728, "minFilter" : 9985, "wrapS" : 10497, "wrapT" : 10497}, {"magFilter" : 9728, "minFilter" : 9985, "wrapS" : 10497, "wrapT" : 10497}, {"magFilter" : 9728, "minFilter" : 9985, "wrapS" : 10497, "wrapT" : 10497}, {"magFilter" : 9728, "minFilter" : 9985, "wrapS" : 10497, "wrapT" : 10497}, {"magFilter" : 9728, "minFilter" : 9985, "wrapS" : 10497, "wrapT" : 10497}], "scene" : 0, "scenes" : [{"nodes" : [2]}], "textures" : [{"sampler" : 0, "source" : 0}, {"sampler" : 1, "source" : 1}, {"sampler" : 2, "source" : 2}, {"sampler" : 3, "source" : 3}, {"sampler" : 4, "source" : 4}, {"sampler" : 5, "source" : 5}, {"sampler" : 6, "source" : 6}, {"sampler" : 7, "source" : 7}]}