{
  "asset": {
    "version": "2.0",
    "generator": "GLTFExporter"
  },
  "scenes": [
    {
      "nodes": [
        3,
        4
      ],
      "name": "Scene"
    }
  ],
  "scene": 0,
  "nodes": [
    {
      "matrix": [
        0.001107119838707149,
        0,
        0,
        0,
        0,
        -0.00010810100485857296,
        0.0012217357062463913,
        0,
        0,
        -0.0018805791180433464,
        -0.00016639645656352456,
        0,
        -0.5495918393135071,
        1.6783710718154907,
        0.4791421592235565,
        1
      ],
      "name": "mesh_id576",
      "mesh": 0
    },
    {
      "matrix": [
        0.0005687502619251181,
        -0.0003684029209530331,
        -0.002339716808660587,
        0,
        0.00044198724671023484,
        0.0023804686284173327,
        -0.0002673790349458547,
        0,
        0.0023269385128698106,
        -0.00036210966485303195,
        0.0006226604602602203,
        0,
        -0.1282626986503601,
        -0.05724414438009262,
        0.056421875953674316,
        1
      ],
      "name": "mesh_id559",
      "mesh": 1
    },
    {
      "name": "root",
      "extras": {
        "name": "root"
      },
      "children": [
        0,
        1
      ]
    },
    {
      "name": "Uranus.glb",
      "children": [
        2
      ]
    },
    {
      "matrix": [
        1,
        0,
        0,
        0,
        0,
        1,
        0,
        0,
        0,
        0,
        1,
        0,
        5,
        10,
        7.5,
        1
      ],
      "name": "DirectionalLight",
      "extensions": {
        "KHR_lights_punctual": {
          "light": 0
        }
      }
    }
  ],
  "bufferViews": [
    {
      "buffer": 0,
      "byteOffset": 0,
      "byteLength": 32604,
      "target": 34962,
      "byteStride": 12
    },
    {
      "buffer": 0,
      "byteOffset": 32604,
      "byteLength": 32604,
      "target": 34962,
      "byteStride": 12
    },
    {
      "buffer": 0,
      "byteOffset": 65208,
      "byteLength": 32580,
      "target": 34963
    },
    {
      "buffer": 0,
      "byteOffset": 97788,
      "byteLength": 19560,
      "target": 34962,
      "byteStride": 12
    },
    {
      "buffer": 0,
      "byteOffset": 117348,
      "byteLength": 19560,
      "target": 34962,
      "byteStride": 12
    },
    {
      "buffer": 0,
      "byteOffset": 136908,
      "byteLength": 13040,
      "target": 34962,
      "byteStride": 8
    },
    {
      "buffer": 0,
      "byteOffset": 149948,
      "byteLength": 26080,
      "target": 34962,
      "byteStride": 16
    },
    {
      "buffer": 0,
      "byteOffset": 176028,
      "byteLength": 18432,
      "target": 34963
    }
  ],
  "buffers": [
    {
      "byteLength": 194460,
      "uri": "data:application/octet-stream;base64,"
    }
  ],
  "accessors": [
    {
      "bufferView": 0,
      "componentType": 5126,
      "count": 2717,
      "max": [
        689.2509765625,
        86.38994598388672,
        965.8809814453125
      ],
      "min": [
        82.87039184570312,
        -512.607666015625,
        920.3833618164062
      ],
      "type": "VEC3"
    },
    {
      "bufferView": 1,
      "componentType": 5126,
      "count": 2717,
      "max": [
        0.9974325895309448,
        0.9960411190986633,
        1
      ],
      "min": [
        -0.9950978755950928,
        -0.9944936633110046,
        -0.9781477451324463
      ],
      "type": "VEC3"
    },
    {
      "bufferView": 2,
      "componentType": 5123,
      "count": 16290,
      "max": [
        2716
      ],
      "min": [
        0
      ],
      "type": "SCALAR"
    },
    {
      "bufferView": 3,
      "componentType": 5126,
      "count": 1630,
      "max": [
        100,
        100,
        100
      ],
      "min": [
        -100,
        -100,
        -100
      ],
      "type": "VEC3"
    },
    {
      "bufferView": 4,
      "componentType": 5126,
      "count": 1630,
      "max": [
        1,
        1,
        1
      ],
      "min": [
        -1,
        -1,
        -1
      ],
      "type": "VEC3"
    },
    {
      "bufferView": 5,
      "componentType": 5126,
      "count": 1630,
      "max": [
        0.7512649297714233,
        0.9999427199363708
      ],
      "min": [
        0.00008383393287658691,
        0.00022420287132263184
      ],
      "type": "VEC2"
    },
    {
      "bufferView": 6,
      "componentType": 5126,
      "count": 1630,
      "max": [
        1,
        1,
        1,
        1
      ],
      "min": [
        1,
        1,
        1,
        1
      ],
      "type": "VEC4"
    },
    {
      "bufferView": 7,
      "componentType": 5123,
      "count": 9216,
      "max": [
        1629
      ],
      "min": [
        0
      ],
      "type": "SCALAR"
    }
  ],
  "materials": [
    {
      "pbrMetallicRoughness": {
        "baseColorTexture": {
          "index": 0
        }
      },
      "extensions": {
        "KHR_materials_pbrSpecularGlossiness": {
          "specularFactor": [
            1,
            1,
            1
          ],
          "glossinessFactor": 1,
          "diffuseTexture": {
            "index": 0
          },
          "specularGlossinessTexture": {
            "index": 1
          }
        }
      },
      "doubleSided": true,
      "name": "707",
      "extras": {
        "MSFT_sRGBFactors": false
      }
    },
    {
      "pbrMetallicRoughness": {
        "baseColorTexture": {
          "index": 2
        }
      },
      "extensions": {
        "KHR_materials_pbrSpecularGlossiness": {
          "specularFactor": [
            1,
            1,
            1
          ],
          "glossinessFactor": 1,
          "diffuseTexture": {
            "index": 2
          },
          "specularGlossinessTexture": {
            "index": 3
          }
        }
      },
      "doubleSided": true,
      "name": "705",
      "extras": {
        "MSFT_sRGBFactors": false
      }
    }
  ],
  "textures": [
    {
      "sampler": 0,
      "source": 0,
      "name": "texture12111"
    },
    {
      "sampler": 1,
      "source": 1,
      "name": "texture12112"
    },
    {
      "sampler": 2,
      "source": 2,
      "name": "texture12106"
    },
    {
      "sampler": 3,
      "source": 3,
      "name": "texture12110"
    }
  ],
  "samplers": [
    {
      "magFilter": 9729,
      "minFilter": 9985,
      "wrapS": 10497,
      "wrapT": 10497
    },
    {
      "magFilter": 9729,
      "minFilter": 9985,
      "wrapS": 10497,
      "wrapT": 10497
    },
    {
      "magFilter": 9729,
      "minFilter": 9985,
      "wrapS": 10497,
      "wrapT": 10497
    },
    {
      "magFilter": 9729,
      "minFilter": 9985,
      "wrapS": 10497,
      "wrapT": 10497
    }
  ],
  "images": [
    {
      "mimeType": "image/png",
      "uri": "data:image/png;base64,"
    },
    {
      "mimeType": "image/png",
      "uri": "data:image/png;base64,"
    },
    {
      "mimeType": "image/png",
      "uri": "data:image/png;base64,"
    },
    {
      "mimeType": "image/png",
      "uri": "data:image/png;base64,"
    }
  ],
  "meshes": [
    {
      "primitives": [
        {
          "mode": 4,
          "attributes": {
            "POSITION": 0,
            "NORMAL": 1
          },
          "indices": 2,
          "material": 0
        }
      ]
    },
    {
      "primitives": [
        {
          "mode": 4,
          "attributes": {
            "POSITION": 3,
            "NORMAL": 4,
            "TEXCOORD_0": 5,
            "COLOR_0": 6
          },
          "indices": 7,
          "material": 1
        }
      ]
    }
  ],
  "extensions": {
    "KHR_lights_punctual": {
      "lights": [
        {
          "name": "DirectionalLight",
          "color": [
            1,
            1,
            1
          ],
          "intensity": 1,
          "type": "directional"
        }
      ]
    }
  },
  "extensionsUsed": [
    "KHR_materials_pbrSpecularGlossiness",
    "KHR_lights_punctual"
  ]
}