{
  "asset": {
    "version": "2.0",
    "generator": "GLTFExporter"
  },
  "scenes": [
    {
      "nodes": [
        6,
        7
      ],
      "name": "Scene"
    }
  ],
  "scene": 0,
  "nodes": [
    {
      "name": "mesh_id159",
      "mesh": 0
    },
    {
      "name": "mesh_id162",
      "mesh": 1
    },
    {
      "name": "mesh_id160",
      "mesh": 2
    },
    {
      "name": "mesh_id161",
      "mesh": 3
    },
    {
      "matrix": [
        0.0010000000474974513,
        0,
        0,
        0,
        0,
        0.0010000000474974513,
        0,
        0,
        0,
        0,
        0.0010000000474974513,
        0,
        0,
        0,
        0,
        1
      ],
      "name": "node_id158",
      "extras": {
        "name": "node_id158"
      },
      "children": [
        0,
        1,
        2,
        3
      ]
    },
    {
      "name": "root",
      "extras": {
        "name": "root"
      },
      "children": [
        4
      ]
    },
    {
      "name": "GTAC.glb",
      "children": [
        5
      ]
    },
    {
      "matrix": [
        1,
        0,
        0,
        0,
        0,
        1,
        0,
        0,
        0,
        0,
        1,
        0,
        5,
        10,
        7.5,
        1
      ],
      "name": "DirectionalLight",
      "extensions": {
        "KHR_lights_punctual": {
          "light": 0
        }
      }
    }
  ],
  "bufferViews": [
    {
      "buffer": 0,
      "byteOffset": 0,
      "byteLength": 2904,
      "target": 34962,
      "byteStride": 12
    },
    {
      "buffer": 0,
      "byteOffset": 2904,
      "byteLength": 2904,
      "target": 34962,
      "byteStride": 12
    },
    {
      "buffer": 0,
      "byteOffset": 5808,
      "byteLength": 1936,
      "target": 34962,
      "byteStride": 8
    },
    {
      "buffer": 0,
      "byteOffset": 7744,
      "byteLength": 3872,
      "target": 34962,
      "byteStride": 16
    },
    {
      "buffer": 0,
      "byteOffset": 11616,
      "byteLength": 2520,
      "target": 34963
    },
    {
      "buffer": 0,
      "byteOffset": 14136,
      "byteLength": 2904,
      "target": 34962,
      "byteStride": 12
    },
    {
      "buffer": 0,
      "byteOffset": 17040,
      "byteLength": 2904,
      "target": 34962,
      "byteStride": 12
    },
    {
      "buffer": 0,
      "byteOffset": 19944,
      "byteLength": 1936,
      "target": 34962,
      "byteStride": 8
    },
    {
      "buffer": 0,
      "byteOffset": 21880,
      "byteLength": 3872,
      "target": 34962,
      "byteStride": 16
    },
    {
      "buffer": 0,
      "byteOffset": 25752,
      "byteLength": 2520,
      "target": 34963
    },
    {
      "buffer": 0,
      "byteOffset": 28272,
      "byteLength": 2904,
      "target": 34962,
      "byteStride": 12
    },
    {
      "buffer": 0,
      "byteOffset": 31176,
      "byteLength": 2904,
      "target": 34962,
      "byteStride": 12
    },
    {
      "buffer": 0,
      "byteOffset": 34080,
      "byteLength": 1936,
      "target": 34962,
      "byteStride": 8
    },
    {
      "buffer": 0,
      "byteOffset": 36016,
      "byteLength": 3872,
      "target": 34962,
      "byteStride": 16
    },
    {
      "buffer": 0,
      "byteOffset": 39888,
      "byteLength": 2520,
      "target": 34963
    },
    {
      "buffer": 0,
      "byteOffset": 42408,
      "byteLength": 2904,
      "target": 34962,
      "byteStride": 12
    },
    {
      "buffer": 0,
      "byteOffset": 45312,
      "byteLength": 2904,
      "target": 34962,
      "byteStride": 12
    },
    {
      "buffer": 0,
      "byteOffset": 48216,
      "byteLength": 1936,
      "target": 34962,
      "byteStride": 8
    },
    {
      "buffer": 0,
      "byteOffset": 50152,
      "byteLength": 3872,
      "target": 34962,
      "byteStride": 16
    },
    {
      "buffer": 0,
      "byteOffset": 54024,
      "byteLength": 2520,
      "target": 34963
    }
  ],
  "buffers": [
    {
      "byteLength": 56544,
      "uri": "data:application/octet-stream;base64,"
    }
  ],
  "accessors": [
    {
      "bufferView": 0,
      "componentType": 5126,
      "count": 242,
      "max": [
        -189.921630859375,
        299.2315368652344,
        349.953125
      ],
      "min": [
        -543.0868530273438,
        135.26312255859375,
        201.592041015625
      ],
      "type": "VEC3"
    },
    {
      "bufferView": 1,
      "componentType": 5126,
      "count": 242,
      "max": [
        0.9972227215766907,
        0.9917598366737366,
        1
      ],
      "min": [
        -0.9972227215766907,
        -0.9917598366737366,
        -0.9781476259231567
      ],
      "type": "VEC3"
    },
    {
      "bufferView": 2,
      "componentType": 5126,
      "count": 242,
      "max": [
        0.9998785853385925,
        0.8555984497070312
      ],
      "min": [
        0.00011286139488220215,
        0.00006046891212463379
      ],
      "type": "VEC2"
    },
    {
      "bufferView": 3,
      "componentType": 5126,
      "count": 242,
      "max": [
        1,
        1,
        1,
        1
      ],
      "min": [
        1,
        1,
        1,
        1
      ],
      "type": "VEC4"
    },
    {
      "bufferView": 4,
      "componentType": 5123,
      "count": 1260,
      "max": [
        241
      ],
      "min": [
        0
      ],
      "type": "SCALAR"
    },
    {
      "bufferView": 5,
      "componentType": 5126,
      "count": 242,
      "max": [
        344.5298767089844,
        -38.00725555419922,
        349.953125
      ],
      "min": [
        -15.385234832763672,
        -198.5269012451172,
        201.592041015625
      ],
      "type": "VEC3"
    },
    {
      "bufferView": 6,
      "componentType": 5126,
      "count": 242,
      "max": [
        0.9984886050224304,
        0.9930187463760376,
        1
      ],
      "min": [
        -0.9984886050224304,
        -0.9930187463760376,
        -0.9781476259231567
      ],
      "type": "VEC3"
    },
    {
      "bufferView": 7,
      "componentType": 5126,
      "count": 242,
      "max": [
        0.9998549222946167,
        0.8640360832214355
      ],
      "min": [
        0.00021058320999145508,
        0.00017505884170532227
      ],
      "type": "VEC2"
    },
    {
      "bufferView": 8,
      "componentType": 5126,
      "count": 242,
      "max": [
        1,
        1,
        1,
        1
      ],
      "min": [
        1,
        1,
        1,
        1
      ],
      "type": "VEC4"
    },
    {
      "bufferView": 9,
      "componentType": 5123,
      "count": 1260,
      "max": [
        241
      ],
      "min": [
        0
      ],
      "type": "SCALAR"
    },
    {
      "bufferView": 10,
      "componentType": 5126,
      "count": 242,
      "max": [
        363.72552490234375,
        294.11328125,
        349.953125
      ],
      "min": [
        -1.7076263427734375,
        140.6724090576172,
        201.59205627441406
      ],
      "type": "VEC3"
    },
    {
      "bufferView": 11,
      "componentType": 5126,
      "count": 242,
      "max": [
        0.9998016357421875,
        0.9943246841430664,
        1
      ],
      "min": [
        -0.9998016357421875,
        -0.9943246841430664,
        -0.9781476259231567
      ],
      "type": "VEC3"
    },
    {
      "bufferView": 12,
      "componentType": 5126,
      "count": 242,
      "max": [
        0.9999479651451111,
        0.8841345310211182
      ],
      "min": [
        0.00007662177085876465,
        0.00024586915969848633
      ],
      "type": "VEC2"
    },
    {
      "bufferView": 13,
      "componentType": 5126,
      "count": 242,
      "max": [
        1,
        1,
        1,
        1
      ],
      "min": [
        1,
        1,
        1,
        1
      ],
      "type": "VEC4"
    },
    {
      "bufferView": 14,
      "componentType": 5123,
      "count": 1260,
      "max": [
        241
      ],
      "min": [
        0
      ],
      "type": "SCALAR"
    },
    {
      "bufferView": 15,
      "componentType": 5126,
      "count": 242,
      "max": [
        -252.08175659179688,
        -86.07215881347656,
        349.953125
      ],
      "min": [
        -581.0775756835938,
        -263.0032958984375,
        201.592041015625
      ],
      "type": "VEC3"
    },
    {
      "bufferView": 16,
      "componentType": 5126,
      "count": 242,
      "max": [
        0.9974238872528076,
        0.9923357963562012,
        1
      ],
      "min": [
        -0.9974238276481628,
        -0.992335855960846,
        -0.9781476855278015
      ],
      "type": "VEC3"
    },
    {
      "bufferView": 17,
      "componentType": 5126,
      "count": 242,
      "max": [
        0.9999784231185913,
        0.8165463209152222
      ],
      "min": [
        0.00026155277737416327,
        0.00008481740951538086
      ],
      "type": "VEC2"
    },
    {
      "bufferView": 18,
      "componentType": 5126,
      "count": 242,
      "max": [
        1,
        1,
        1,
        1
      ],
      "min": [
        1,
        1,
        1,
        1
      ],
      "type": "VEC4"
    },
    {
      "bufferView": 19,
      "componentType": 5123,
      "count": 1260,
      "max": [
        241
      ],
      "min": [
        0
      ],
      "type": "SCALAR"
    }
  ],
  "materials": [
    {
      "pbrMetallicRoughness": {
        "baseColorTexture": {
          "index": 0
        }
      },
      "extensions": {
        "KHR_materials_pbrSpecularGlossiness": {
          "specularFactor": [
            1,
            1,
            1
          ],
          "glossinessFactor": 1,
          "diffuseTexture": {
            "index": 0
          },
          "specularGlossinessTexture": {
            "index": 1
          }
        }
      },
      "doubleSided": true,
      "name": "281",
      "extras": {
        "MSFT_sRGBFactors": false
      }
    },
    {
      "pbrMetallicRoughness": {
        "baseColorTexture": {
          "index": 2
        }
      },
      "extensions": {
        "KHR_materials_pbrSpecularGlossiness": {
          "specularFactor": [
            1,
            1,
            1
          ],
          "glossinessFactor": 1,
          "diffuseTexture": {
            "index": 2
          },
          "specularGlossinessTexture": {
            "index": 3
          }
        }
      },
      "doubleSided": true,
      "name": "287",
      "extras": {
        "MSFT_sRGBFactors": false
      }
    },
    {
      "pbrMetallicRoughness": {
        "baseColorTexture": {
          "index": 4
        }
      },
      "extensions": {
        "KHR_materials_pbrSpecularGlossiness": {
          "specularFactor": [
            1,
            1,
            1
          ],
          "glossinessFactor": 1,
          "diffuseTexture": {
            "index": 4
          },
          "specularGlossinessTexture": {
            "index": 5
          }
        }
      },
      "doubleSided": true,
      "name": "283",
      "extras": {
        "MSFT_sRGBFactors": false
      }
    },
    {
      "pbrMetallicRoughness": {
        "baseColorTexture": {
          "index": 6
        }
      },
      "extensions": {
        "KHR_materials_pbrSpecularGlossiness": {
          "specularFactor": [
            1,
            1,
            1
          ],
          "glossinessFactor": 1,
          "diffuseTexture": {
            "index": 6
          },
          "specularGlossinessTexture": {
            "index": 7
          }
        }
      },
      "doubleSided": true,
      "name": "285",
      "extras": {
        "MSFT_sRGBFactors": false
      }
    }
  ],
  "textures": [
    {
      "sampler": 0,
      "source": 0,
      "name": "texture2866"
    },
    {
      "sampler": 1,
      "source": 1,
      "name": "texture2870"
    },
    {
      "sampler": 2,
      "source": 2,
      "name": "texture2896"
    },
    {
      "sampler": 3,
      "source": 3,
      "name": "texture2900"
    },
    {
      "sampler": 4,
      "source": 4,
      "name": "texture2876"
    },
    {
      "sampler": 5,
      "source": 5,
      "name": "texture2880"
    },
    {
      "sampler": 6,
      "source": 6,
      "name": "texture2886"
    },
    {
      "sampler": 7,
      "source": 7,
      "name": "texture2890"
    }
  ],
  "samplers": [
    {
      "magFilter": 9729,
      "minFilter": 9985,
      "wrapS": 10497,
      "wrapT": 10497
    },
    {
      "magFilter": 9729,
      "minFilter": 9985,
      "wrapS": 10497,
      "wrapT": 10497
    },
    {
      "magFilter": 9729,
      "minFilter": 9985,
      "wrapS": 10497,
      "wrapT": 10497
    },
    {
      "magFilter": 9729,
      "minFilter": 9985,
      "wrapS": 10497,
      "wrapT": 10497
    },
    {
      "magFilter": 9729,
      "minFilter": 9985,
      "wrapS": 10497,
      "wrapT": 10497
    },
    {
      "magFilter": 9729,
      "minFilter": 9985,
      "wrapS": 10497,
      "wrapT": 10497
    },
    {
      "magFilter": 9729,
      "minFilter": 9985,
      "wrapS": 10497,
      "wrapT": 10497
    },
    {
      "magFilter": 9729,
      "minFilter": 9985,
      "wrapS": 10497,
      "wrapT": 10497
    }
  ],
  "images": [
    {
      "mimeType": "image/png",
      "uri": "data:image/png;base64,"
    },
    {
      "mimeType": "image/png",
      "uri": "data:image/png;base64,"
    },
    {
      "mimeType": "image/png",
      "uri": "data:image/png;base64,"
    },
    {
      "mimeType": "image/png",
      "uri": "data:image/png;base64,"
    },
    {
      "mimeType": "image/png",
      "uri": "data:image/png;base64,"
    },
    {
      "mimeType": "image/png",
      "uri": "data:image/png;base64,"
    },
    {
      "mimeType": "image/png",
      "uri": "data:image/png;base64,"
    },
    {
      "mimeType": "image/png",
      "uri": "data:image/png;base64,"
    }
  ],
  "meshes": [
    {
      "primitives": [
        {
          "mode": 4,
          "attributes": {
            "POSITION": 0,
            "NORMAL": 1,
            "TEXCOORD_0": 2,
            "COLOR_0": 3
          },
          "indices": 4,
          "material": 0
        }
      ]
    },
    {
      "primitives": [
        {
          "mode": 4,
          "attributes": {
            "POSITION": 5,
            "NORMAL": 6,
            "TEXCOORD_0": 7,
            "COLOR_0": 8
          },
          "indices": 9,
          "material": 1
        }
      ]
    },
    {
      "primitives": [
        {
          "mode": 4,
          "attributes": {
            "POSITION": 10,
            "NORMAL": 11,
            "TEXCOORD_0": 12,
            "COLOR_0": 13
          },
          "indices": 14,
          "material": 2
        }
      ]
    },
    {
      "primitives": [
        {
          "mode": 4,
          "attributes": {
            "POSITION": 15,
            "NORMAL": 16,
            "TEXCOORD_0": 17,
            "COLOR_0": 18
          },
          "indices": 19,
          "material": 3
        }
      ]
    }
  ],
  "extensions": {
    "KHR_lights_punctual": {
      "lights": [
        {
          "name": "DirectionalLight",
          "color": [
            1,
            1,
            1
          ],
          "intensity": 1,
          "type": "directional"
        }
      ]
    }
  },
  "extensionsUsed": [
    "KHR_materials_pbrSpecularGlossiness",
    "KHR_lights_punctual"
  ]
}