{
  "asset": {
    "version": "2.0",
    "generator": "GLTFExporter"
  },
  "scenes": [
    {
      "nodes": [
        4,
        5
      ],
      "name": "Scene"
    }
  ],
  "scene": 0,
  "nodes": [
    {
      "matrix": [
        0.13240283727645874,
        0,
        0,
        0,
        0,
        0.18950966000556946,
        0,
        0,
        0,
        0,
        0.09475483000278473,
        0,
        0.5945709943771362,
        0.6036665439605713,
        0.36387503147125244,
        1
      ],
      "name": "mesh_id30",
      "mesh": 0
    },
    {
      "matrix": [
        0.1586572378873825,
        0,
        0,
        0,
        0,
        0.1943999081850052,
        0,
        0,
        0,
        0,
        0.0971999540925026,
        0,
        0.5782562494277954,
        0.6183023452758789,
        0.36344826221466064,
        1
      ],
      "name": "mesh_id34",
      "mesh": 1
    },
    {
      "matrix": [
        -0.3969138658213016,
        0,
        -0.34344331784937415,
        0,
        0,
        1.0689641237258911,
        0,
        0,
        0.34972939236877726,
        0,
        -0.40417861668022304,
        0,
        0.4672764241695404,
        0.24948464334011078,
        0.19893763959407806,
        1
      ],
      "name": "mesh_id26",
      "mesh": 2
    },
    {
      "name": "root",
      "extras": {
        "name": "root"
      },
      "children": [
        0,
        1,
        2
      ]
    },
    {
      "name": "Femur.glb",
      "children": [
        3
      ]
    },
    {
      "matrix": [
        1,
        0,
        0,
        0,
        0,
        1,
        0,
        0,
        0,
        0,
        1,
        0,
        5,
        10,
        7.5,
        1
      ],
      "name": "DirectionalLight",
      "extensions": {
        "KHR_lights_punctual": {
          "light": 0
        }
      }
    }
  ],
  "bufferViews": [
    {
      "buffer": 0,
      "byteOffset": 0,
      "byteLength": 195060,
      "target": 34962,
      "byteStride": 12
    },
    {
      "buffer": 0,
      "byteOffset": 195060,
      "byteLength": 195060,
      "target": 34962,
      "byteStride": 12
    },
    {
      "buffer": 0,
      "byteOffset": 390120,
      "byteLength": 194976,
      "target": 34963
    },
    {
      "buffer": 0,
      "byteOffset": 585096,
      "byteLength": 220896,
      "target": 34962,
      "byteStride": 12
    },
    {
      "buffer": 0,
      "byteOffset": 805992,
      "byteLength": 220896,
      "target": 34962,
      "byteStride": 12
    },
    {
      "buffer": 0,
      "byteOffset": 1026888,
      "byteLength": 220872,
      "target": 34963
    },
    {
      "buffer": 0,
      "byteOffset": 1247760,
      "byteLength": 60996,
      "target": 34962,
      "byteStride": 12
    },
    {
      "buffer": 0,
      "byteOffset": 1308756,
      "byteLength": 60996,
      "target": 34962,
      "byteStride": 12
    },
    {
      "buffer": 0,
      "byteOffset": 1369752,
      "byteLength": 40664,
      "target": 34962,
      "byteStride": 8
    },
    {
      "buffer": 0,
      "byteOffset": 1410416,
      "byteLength": 81328,
      "target": 34962,
      "byteStride": 16
    },
    {
      "buffer": 0,
      "byteOffset": 1491744,
      "byteLength": 55524,
      "target": 34963
    }
  ],
  "buffers": [
    {
      "byteLength": 1547268,
      "uri": "data:application/octet-stream;base64,"
    }
  ],
  "accessors": [
    {
      "bufferView": 0,
      "componentType": 5126,
      "count": 16255,
      "max": [
        0.4865912199020386,
        0.4800988435745239,
        0.21807418763637543
      ],
      "min": [
        -0.46370729804039,
        -0.5,
        -0.21807418763637543
      ],
      "type": "VEC3"
    },
    {
      "bufferView": 1,
      "componentType": 5126,
      "count": 16255,
      "max": [
        0.9994441866874695,
        0.9920417070388794,
        0.9999998211860657
      ],
      "min": [
        -0.9998617172241211,
        -0.9539197087287903,
        -0.9999998211860657
      ],
      "type": "VEC3"
    },
    {
      "bufferView": 2,
      "componentType": 5123,
      "count": 97488,
      "max": [
        16254
      ],
      "min": [
        0
      ],
      "type": "SCALAR"
    },
    {
      "bufferView": 3,
      "componentType": 5126,
      "count": 18408,
      "max": [
        0.4902988076210022,
        0.4907059073448181,
        0.2877878248691559
      ],
      "min": [
        -0.4821970760822296,
        -0.4551607072353363,
        -0.2877878248691559
      ],
      "type": "VEC3"
    },
    {
      "bufferView": 4,
      "componentType": 5126,
      "count": 18408,
      "max": [
        0.9994682669639587,
        0.9999191761016846,
        0.9999988079071045
      ],
      "min": [
        -0.9996774792671204,
        -0.9756499528884888,
        -0.9999988079071045
      ],
      "type": "VEC3"
    },
    {
      "bufferView": 5,
      "componentType": 5123,
      "count": 110436,
      "max": [
        18407
      ],
      "min": [
        0
      ],
      "type": "SCALAR"
    },
    {
      "bufferView": 6,
      "componentType": 5126,
      "count": 5083,
      "max": [
        0.48989930748939514,
        0.49716347455978394,
        0.058082349598407745
      ],
      "min": [
        -0.4956308901309967,
        -0.4964715540409088,
        -0.058082349598407745
      ],
      "type": "VEC3"
    },
    {
      "bufferView": 7,
      "componentType": 5126,
      "count": 5083,
      "max": [
        0.9989837408065796,
        0.9996143579483032,
        1
      ],
      "min": [
        -0.9885233640670776,
        -0.9986396431922913,
        -1
      ],
      "type": "VEC3"
    },
    {
      "bufferView": 8,
      "componentType": 5126,
      "count": 5083,
      "max": [
        0.8015440106391907,
        0.9999500513076782
      ],
      "min": [
        0.00010930746793746948,
        0.000049948692321777344
      ],
      "type": "VEC2"
    },
    {
      "bufferView": 9,
      "componentType": 5126,
      "count": 5083,
      "max": [
        1,
        1,
        1,
        1
      ],
      "min": [
        1,
        1,
        1,
        1
      ],
      "type": "VEC4"
    },
    {
      "bufferView": 10,
      "componentType": 5123,
      "count": 27762,
      "max": [
        5082
      ],
      "min": [
        0
      ],
      "type": "SCALAR"
    }
  ],
  "materials": [
    {
      "pbrMetallicRoughness": {
        "baseColorTexture": {
          "index": 0
        }
      },
      "extensions": {
        "KHR_materials_pbrSpecularGlossiness": {
          "specularFactor": [
            1,
            1,
            1
          ],
          "glossinessFactor": 1,
          "diffuseTexture": {
            "index": 0
          },
          "specularGlossinessTexture": {
            "index": 1
          }
        }
      },
      "doubleSided": true,
      "name": "83",
      "extras": {
        "MSFT_sRGBFactors": false
      }
    },
    {
      "pbrMetallicRoughness": {
        "baseColorTexture": {
          "index": 0
        }
      },
      "extensions": {
        "KHR_materials_pbrSpecularGlossiness": {
          "specularFactor": [
            1,
            1,
            1
          ],
          "glossinessFactor": 1,
          "diffuseTexture": {
            "index": 0
          },
          "specularGlossinessTexture": {
            "index": 1
          }
        }
      },
      "doubleSided": true,
      "name": "85",
      "extras": {
        "MSFT_sRGBFactors": false
      }
    },
    {
      "pbrMetallicRoughness": {
        "baseColorTexture": {
          "index": 2
        }
      },
      "extensions": {
        "KHR_materials_pbrSpecularGlossiness": {
          "specularFactor": [
            1,
            1,
            1
          ],
          "glossinessFactor": 1,
          "diffuseTexture": {
            "index": 2
          },
          "specularGlossinessTexture": {
            "index": 3
          }
        }
      },
      "doubleSided": true,
      "name": "81",
      "extras": {
        "MSFT_sRGBFactors": false
      }
    }
  ],
  "textures": [
    {
      "sampler": 0,
      "source": 0,
      "name": "texture420"
    },
    {
      "sampler": 1,
      "source": 1,
      "name": "texture421"
    },
    {
      "sampler": 2,
      "source": 2,
      "name": "texture415"
    },
    {
      "sampler": 3,
      "source": 3,
      "name": "texture419"
    }
  ],
  "samplers": [
    {
      "magFilter": 9729,
      "minFilter": 9985,
      "wrapS": 10497,
      "wrapT": 10497
    },
    {
      "magFilter": 9729,
      "minFilter": 9985,
      "wrapS": 10497,
      "wrapT": 10497
    },
    {
      "magFilter": 9729,
      "minFilter": 9985,
      "wrapS": 10497,
      "wrapT": 10497
    },
    {
      "magFilter": 9729,
      "minFilter": 9985,
      "wrapS": 10497,
      "wrapT": 10497
    }
  ],
  "images": [
    {
      "mimeType": "image/png",
      "uri": "data:image/png;base64,"
    },
    {
      "mimeType": "image/png",
      "uri": "data:image/png;base64,"
    },
    {
      "mimeType": "image/png",
      "uri": "data:image/png;base64,"
    },
    {
      "mimeType": "image/png",
      "uri": "data:image/png;base64,"
    }
  ],
  "meshes": [
    {
      "primitives": [
        {
          "mode": 4,
          "attributes": {
            "POSITION": 0,
            "NORMAL": 1
          },
          "indices": 2,
          "material": 0
        }
      ]
    },
    {
      "primitives": [
        {
          "mode": 4,
          "attributes": {
            "POSITION": 3,
            "NORMAL": 4
          },
          "indices": 5,
          "material": 1
        }
      ]
    },
    {
      "primitives": [
        {
          "mode": 4,
          "attributes": {
            "POSITION": 6,
            "NORMAL": 7,
            "TEXCOORD_0": 8,
            "COLOR_0": 9
          },
          "indices": 10,
          "material": 2
        }
      ]
    }
  ],
  "extensions": {
    "KHR_lights_punctual": {
      "lights": [
        {
          "name": "DirectionalLight",
          "color": [
            1,
            1,
            1
          ],
          "intensity": 1,
          "type": "directional"
        }
      ]
    }
  },
  "extensionsUsed": [
    "KHR_materials_pbrSpecularGlossiness",
    "KHR_lights_punctual"
  ]
}