{
  "asset": {
    "version": "2.0",
    "generator": "GLTFExporter"
  },
  "scenes": [
    {
      "nodes": [
        12,
        13
      ],
      "name": "Scene"
    }
  ],
  "scene": 0,
  "nodes": [
    {
      "name": "mesh_id97",
      "mesh": 0
    },
    {
      "name": "mesh_id98",
      "mesh": 1
    },
    {
      "name": "mesh_id99",
      "mesh": 2
    },
    {
      "name": "mesh_id100",
      "mesh": 3
    },
    {
      "name": "mesh_id101",
      "mesh": 4
    },
    {
      "name": "mesh_id107",
      "mesh": 5
    },
    {
      "matrix": [
        0.0010000000474974513,
        0,
        0,
        0,
        0,
        0.0010000000474974513,
        0,
        0,
        0,
        0,
        0.0010000000474974513,
        0,
        0.006830198690295219,
        -7.247925282172218e-7,
        -0.12010394781827927,
        1
      ],
      "name": "node_id96",
      "extras": {
        "name": "node_id96"
      },
      "children": [
        0,
        1,
        2,
        3,
        4,
        5
      ]
    },
    {
      "matrix": [
        0.0010000000474974513,
        0,
        0,
        0,
        0,
        0.0010000000474974513,
        0,
        0,
        0,
        0,
        0.0010000000474974513,
        0,
        -0.006916196085512638,
        -0.0016757813282310963,
        0.0231015644967556,
        1
      ],
      "name": "mesh_id70",
      "mesh": 6
    },
    {
      "matrix": [
        0.0006776335649192333,
        0,
        0,
        0,
        0,
        0.0006776335649192333,
        0,
        0,
        0,
        0,
        0.0006776335649192333,
        0,
        -0.1102118268609047,
        0.08597461134195328,
        0.019621094688773155,
        1
      ],
      "name": "mesh_id72",
      "mesh": 7
    },
    {
      "matrix": [
        0.0007090999279171228,
        0,
        0,
        0,
        0,
        0.0007090999279171228,
        0,
        0,
        0,
        0,
        0.0007090999279171228,
        0,
        0.09001005440950394,
        0.09059082716703415,
        0.01647363416850567,
        1
      ],
      "name": "mesh_id78",
      "mesh": 8
    },
    {
      "matrix": [
        0.00027705429238267243,
        0,
        0,
        0,
        0,
        0.00027705429238267243,
        0,
        0,
        0,
        0,
        0.00027705429238267243,
        0,
        -0.008337318897247314,
        0.001425781287252903,
        0.11902295798063278,
        1
      ],
      "name": "mesh_id109",
      "mesh": 9
    },
    {
      "name": "root",
      "extras": {
        "name": "root"
      },
      "children": [
        6,
        7,
        8,
        9,
        10
      ]
    },
    {
      "name": "H2O_1.glb",
      "children": [
        11
      ]
    },
    {
      "matrix": [
        1,
        0,
        0,
        0,
        0,
        1,
        0,
        0,
        0,
        0,
        1,
        0,
        5,
        10,
        7.5,
        1
      ],
      "name": "DirectionalLight",
      "extensions": {
        "KHR_lights_punctual": {
          "light": 0
        }
      }
    }
  ],
  "bufferViews": [
    {
      "buffer": 0,
      "byteOffset": 0,
      "byteLength": 2544,
      "target": 34962,
      "byteStride": 12
    },
    {
      "buffer": 0,
      "byteOffset": 2544,
      "byteLength": 2544,
      "target": 34962,
      "byteStride": 12
    },
    {
      "buffer": 0,
      "byteOffset": 5088,
      "byteLength": 2520,
      "target": 34963
    },
    {
      "buffer": 0,
      "byteOffset": 7608,
      "byteLength": 2544,
      "target": 34962,
      "byteStride": 12
    },
    {
      "buffer": 0,
      "byteOffset": 10152,
      "byteLength": 2544,
      "target": 34962,
      "byteStride": 12
    },
    {
      "buffer": 0,
      "byteOffset": 12696,
      "byteLength": 2520,
      "target": 34963
    },
    {
      "buffer": 0,
      "byteOffset": 15216,
      "byteLength": 2544,
      "target": 34962,
      "byteStride": 12
    },
    {
      "buffer": 0,
      "byteOffset": 17760,
      "byteLength": 2544,
      "target": 34962,
      "byteStride": 12
    },
    {
      "buffer": 0,
      "byteOffset": 20304,
      "byteLength": 2520,
      "target": 34963
    },
    {
      "buffer": 0,
      "byteOffset": 22824,
      "byteLength": 2544,
      "target": 34962,
      "byteStride": 12
    },
    {
      "buffer": 0,
      "byteOffset": 25368,
      "byteLength": 2544,
      "target": 34962,
      "byteStride": 12
    },
    {
      "buffer": 0,
      "byteOffset": 27912,
      "byteLength": 2520,
      "target": 34963
    },
    {
      "buffer": 0,
      "byteOffset": 30432,
      "byteLength": 2544,
      "target": 34962,
      "byteStride": 12
    },
    {
      "buffer": 0,
      "byteOffset": 32976,
      "byteLength": 2544,
      "target": 34962,
      "byteStride": 12
    },
    {
      "buffer": 0,
      "byteOffset": 35520,
      "byteLength": 2520,
      "target": 34963
    },
    {
      "buffer": 0,
      "byteOffset": 38040,
      "byteLength": 2544,
      "target": 34962,
      "byteStride": 12
    },
    {
      "buffer": 0,
      "byteOffset": 40584,
      "byteLength": 2544,
      "target": 34962,
      "byteStride": 12
    },
    {
      "buffer": 0,
      "byteOffset": 43128,
      "byteLength": 2520,
      "target": 34963
    },
    {
      "buffer": 0,
      "byteOffset": 45648,
      "byteLength": 18456,
      "target": 34962,
      "byteStride": 12
    },
    {
      "buffer": 0,
      "byteOffset": 64104,
      "byteLength": 18456,
      "target": 34962,
      "byteStride": 12
    },
    {
      "buffer": 0,
      "byteOffset": 82560,
      "byteLength": 18432,
      "target": 34963
    },
    {
      "buffer": 0,
      "byteOffset": 100992,
      "byteLength": 18456,
      "target": 34962,
      "byteStride": 12
    },
    {
      "buffer": 0,
      "byteOffset": 119448,
      "byteLength": 18456,
      "target": 34962,
      "byteStride": 12
    },
    {
      "buffer": 0,
      "byteOffset": 137904,
      "byteLength": 18432,
      "target": 34963
    },
    {
      "buffer": 0,
      "byteOffset": 156336,
      "byteLength": 18456,
      "target": 34962,
      "byteStride": 12
    },
    {
      "buffer": 0,
      "byteOffset": 174792,
      "byteLength": 18456,
      "target": 34962,
      "byteStride": 12
    },
    {
      "buffer": 0,
      "byteOffset": 193248,
      "byteLength": 18432,
      "target": 34963
    },
    {
      "buffer": 0,
      "byteOffset": 211680,
      "byteLength": 75840,
      "target": 34962,
      "byteStride": 12
    },
    {
      "buffer": 0,
      "byteOffset": 287520,
      "byteLength": 75840,
      "target": 34962,
      "byteStride": 12
    },
    {
      "buffer": 0,
      "byteOffset": 363360,
      "byteLength": 76800,
      "target": 34963
    }
  ],
  "buffers": [
    {
      "byteLength": 440160,
      "uri": "data:application/octet-stream;base64,"
    }
  ],
  "accessors": [
    {
      "bufferView": 0,
      "componentType": 5126,
      "count": 212,
      "max": [
        -125.62147521972656,
        108.17376708984375,
        210.0625
      ],
      "min": [
        -146.18153381347656,
        60.25645065307617,
        200.17176818847656
      ],
      "type": "VEC3"
    },
    {
      "bufferView": 1,
      "componentType": 5126,
      "count": 212,
      "max": [
        0.9936732649803162,
        0.9984874129295349,
        1
      ],
      "min": [
        -0.9936732649803162,
        -0.9984874129295349,
        -0.9781476259231567
      ],
      "type": "VEC3"
    },
    {
      "bufferView": 2,
      "componentType": 5123,
      "count": 1260,
      "max": [
        211
      ],
      "min": [
        0
      ],
      "type": "SCALAR"
    },
    {
      "bufferView": 3,
      "componentType": 5126,
      "count": 212,
      "max": [
        -102.51205444335938,
        103.5584716796875,
        210.0625
      ],
      "min": [
        -149.14761352539062,
        81.17953491210938,
        200.17176818847656
      ],
      "type": "VEC3"
    },
    {
      "bufferView": 4,
      "componentType": 5126,
      "count": 212,
      "max": [
        0.994253933429718,
        0.9895904064178467,
        1
      ],
      "min": [
        -0.9942539930343628,
        -0.9895904064178467,
        -0.9781476259231567
      ],
      "type": "VEC3"
    },
    {
      "bufferView": 5,
      "componentType": 5123,
      "count": 1260,
      "max": [
        211
      ],
      "min": [
        0
      ],
      "type": "SCALAR"
    },
    {
      "bufferView": 6,
      "componentType": 5126,
      "count": 212,
      "max": [
        -104.49353790283203,
        115.09502410888672,
        210.0625
      ],
      "min": [
        -126.28729248046875,
        64.58880615234375,
        200.17176818847656
      ],
      "type": "VEC3"
    },
    {
      "bufferView": 7,
      "componentType": 5126,
      "count": 212,
      "max": [
        0.9930530786514282,
        0.9978362321853638,
        1
      ],
      "min": [
        -0.9930530190467834,
        -0.9978362917900085,
        -0.9781476855278015
      ],
      "type": "VEC3"
    },
    {
      "bufferView": 8,
      "componentType": 5123,
      "count": 1260,
      "max": [
        211
      ],
      "min": [
        0
      ],
      "type": "SCALAR"
    },
    {
      "bufferView": 9,
      "componentType": 5126,
      "count": 212,
      "max": [
        81.41171264648438,
        124.60054779052734,
        210.0625
      ],
      "min": [
        63.79881286621094,
        75.07857513427734,
        200.17176818847656
      ],
      "type": "VEC3"
    },
    {
      "bufferView": 10,
      "componentType": 5126,
      "count": 212,
      "max": [
        0.9942213892936707,
        0.9992321133613586,
        1
      ],
      "min": [
        -0.9942214488983154,
        -0.9992321133613586,
        -0.9781476259231567
      ],
      "type": "VEC3"
    },
    {
      "bufferView": 11,
      "componentType": 5123,
      "count": 1260,
      "max": [
        211
      ],
      "min": [
        0
      ],
      "type": "SCALAR"
    },
    {
      "bufferView": 12,
      "componentType": 5126,
      "count": 212,
      "max": [
        104.65422821044922,
        119.38724517822266,
        210.0625
      ],
      "min": [
        60.5841064453125,
        94.62428283691406,
        200.17176818847656
      ],
      "type": "VEC3"
    },
    {
      "bufferView": 13,
      "componentType": 5126,
      "count": 212,
      "max": [
        0.9983003735542297,
        0.9947212934494019,
        1
      ],
      "min": [
        -0.9983003735542297,
        -0.9947212934494019,
        -0.9781476259231567
      ],
      "type": "VEC3"
    },
    {
      "bufferView": 14,
      "componentType": 5123,
      "count": 1260,
      "max": [
        211
      ],
      "min": [
        0
      ],
      "type": "SCALAR"
    },
    {
      "bufferView": 15,
      "componentType": 5126,
      "count": 212,
      "max": [
        106.3806381225586,
        134.5008544921875,
        210.0625
      ],
      "min": [
        87.7751693725586,
        84.21805572509766,
        200.17176818847656
      ],
      "type": "VEC3"
    },
    {
      "bufferView": 16,
      "componentType": 5126,
      "count": 212,
      "max": [
        0.9946978688240051,
        0.9996632933616638,
        1
      ],
      "min": [
        -0.9946979284286499,
        -0.9996632933616638,
        -0.9781476259231567
      ],
      "type": "VEC3"
    },
    {
      "bufferView": 17,
      "componentType": 5123,
      "count": 1260,
      "max": [
        211
      ],
      "min": [
        0
      ],
      "type": "SCALAR"
    },
    {
      "bufferView": 18,
      "componentType": 5126,
      "count": 1538,
      "max": [
        100,
        100,
        100
      ],
      "min": [
        -100,
        -100,
        -100
      ],
      "type": "VEC3"
    },
    {
      "bufferView": 19,
      "componentType": 5126,
      "count": 1538,
      "max": [
        1,
        1,
        1
      ],
      "min": [
        -1,
        -1,
        -1
      ],
      "type": "VEC3"
    },
    {
      "bufferView": 20,
      "componentType": 5123,
      "count": 9216,
      "max": [
        1537
      ],
      "min": [
        0
      ],
      "type": "SCALAR"
    },
    {
      "bufferView": 21,
      "componentType": 5126,
      "count": 1538,
      "max": [
        100,
        100,
        100
      ],
      "min": [
        -100,
        -100,
        -100
      ],
      "type": "VEC3"
    },
    {
      "bufferView": 22,
      "componentType": 5126,
      "count": 1538,
      "max": [
        1,
        1,
        1
      ],
      "min": [
        -1,
        -1,
        -1
      ],
      "type": "VEC3"
    },
    {
      "bufferView": 23,
      "componentType": 5123,
      "count": 9216,
      "max": [
        1537
      ],
      "min": [
        0
      ],
      "type": "SCALAR"
    },
    {
      "bufferView": 24,
      "componentType": 5126,
      "count": 1538,
      "max": [
        100,
        100,
        100
      ],
      "min": [
        -100,
        -100,
        -100
      ],
      "type": "VEC3"
    },
    {
      "bufferView": 25,
      "componentType": 5126,
      "count": 1538,
      "max": [
        1,
        1,
        1
      ],
      "min": [
        -1,
        -1,
        -1
      ],
      "type": "VEC3"
    },
    {
      "bufferView": 26,
      "componentType": 5123,
      "count": 9216,
      "max": [
        1537
      ],
      "min": [
        0
      ],
      "type": "SCALAR"
    },
    {
      "bufferView": 27,
      "componentType": 5126,
      "count": 6320,
      "max": [
        100,
        100,
        34
      ],
      "min": [
        -100,
        -100,
        -34
      ],
      "type": "VEC3"
    },
    {
      "bufferView": 28,
      "componentType": 5126,
      "count": 6320,
      "max": [
        1,
        1,
        1
      ],
      "min": [
        -1,
        -1,
        -1
      ],
      "type": "VEC3"
    },
    {
      "bufferView": 29,
      "componentType": 5123,
      "count": 38400,
      "max": [
        6319
      ],
      "min": [
        0
      ],
      "type": "SCALAR"
    }
  ],
  "materials": [
    {
      "pbrMetallicRoughness": {
        "baseColorTexture": {
          "index": 0
        }
      },
      "extensions": {
        "KHR_materials_pbrSpecularGlossiness": {
          "specularFactor": [
            1,
            1,
            1
          ],
          "glossinessFactor": 1,
          "diffuseTexture": {
            "index": 0
          },
          "specularGlossinessTexture": {
            "index": 1
          }
        }
      },
      "doubleSided": true,
      "name": "182",
      "extras": {
        "MSFT_sRGBFactors": false
      }
    },
    {
      "pbrMetallicRoughness": {
        "baseColorTexture": {
          "index": 0
        }
      },
      "extensions": {
        "KHR_materials_pbrSpecularGlossiness": {
          "specularFactor": [
            1,
            1,
            1
          ],
          "glossinessFactor": 1,
          "diffuseTexture": {
            "index": 0
          },
          "specularGlossinessTexture": {
            "index": 1
          }
        }
      },
      "doubleSided": true,
      "name": "184",
      "extras": {
        "MSFT_sRGBFactors": false
      }
    },
    {
      "pbrMetallicRoughness": {
        "baseColorTexture": {
          "index": 0
        }
      },
      "extensions": {
        "KHR_materials_pbrSpecularGlossiness": {
          "specularFactor": [
            1,
            1,
            1
          ],
          "glossinessFactor": 1,
          "diffuseTexture": {
            "index": 0
          },
          "specularGlossinessTexture": {
            "index": 1
          }
        }
      },
      "doubleSided": true,
      "name": "186",
      "extras": {
        "MSFT_sRGBFactors": false
      }
    },
    {
      "pbrMetallicRoughness": {
        "baseColorTexture": {
          "index": 0
        }
      },
      "extensions": {
        "KHR_materials_pbrSpecularGlossiness": {
          "specularFactor": [
            1,
            1,
            1
          ],
          "glossinessFactor": 1,
          "diffuseTexture": {
            "index": 0
          },
          "specularGlossinessTexture": {
            "index": 1
          }
        }
      },
      "doubleSided": true,
      "name": "188",
      "extras": {
        "MSFT_sRGBFactors": false
      }
    },
    {
      "pbrMetallicRoughness": {
        "baseColorTexture": {
          "index": 0
        }
      },
      "extensions": {
        "KHR_materials_pbrSpecularGlossiness": {
          "specularFactor": [
            1,
            1,
            1
          ],
          "glossinessFactor": 1,
          "diffuseTexture": {
            "index": 0
          },
          "specularGlossinessTexture": {
            "index": 1
          }
        }
      },
      "doubleSided": true,
      "name": "190",
      "extras": {
        "MSFT_sRGBFactors": false
      }
    },
    {
      "pbrMetallicRoughness": {
        "baseColorTexture": {
          "index": 0
        }
      },
      "extensions": {
        "KHR_materials_pbrSpecularGlossiness": {
          "specularFactor": [
            1,
            1,
            1
          ],
          "glossinessFactor": 1,
          "diffuseTexture": {
            "index": 0
          },
          "specularGlossinessTexture": {
            "index": 1
          }
        }
      },
      "doubleSided": true,
      "name": "192",
      "extras": {
        "MSFT_sRGBFactors": false
      }
    },
    {
      "pbrMetallicRoughness": {
        "baseColorTexture": {
          "index": 2
        }
      },
      "extensions": {
        "KHR_materials_pbrSpecularGlossiness": {
          "specularFactor": [
            1,
            1,
            1
          ],
          "glossinessFactor": 1,
          "diffuseTexture": {
            "index": 2
          },
          "specularGlossinessTexture": {
            "index": 1
          }
        }
      },
      "doubleSided": true,
      "name": "176",
      "extras": {
        "MSFT_sRGBFactors": false
      }
    },
    {
      "pbrMetallicRoughness": {
        "baseColorTexture": {
          "index": 3
        }
      },
      "extensions": {
        "KHR_materials_pbrSpecularGlossiness": {
          "specularFactor": [
            1,
            1,
            1
          ],
          "glossinessFactor": 1,
          "diffuseTexture": {
            "index": 3
          },
          "specularGlossinessTexture": {
            "index": 1
          }
        }
      },
      "doubleSided": true,
      "name": "178",
      "extras": {
        "MSFT_sRGBFactors": false
      }
    },
    {
      "pbrMetallicRoughness": {
        "baseColorTexture": {
          "index": 0
        }
      },
      "extensions": {
        "KHR_materials_pbrSpecularGlossiness": {
          "specularFactor": [
            1,
            1,
            1
          ],
          "glossinessFactor": 1,
          "diffuseTexture": {
            "index": 0
          },
          "specularGlossinessTexture": {
            "index": 1
          }
        }
      },
      "doubleSided": true,
      "name": "180",
      "extras": {
        "MSFT_sRGBFactors": false
      }
    }
  ],
  "textures": [
    {
      "sampler": 0,
      "source": 0,
      "name": "texture1753"
    },
    {
      "sampler": 1,
      "source": 1,
      "name": "texture1751"
    },
    {
      "sampler": 2,
      "source": 2,
      "name": "texture1750"
    },
    {
      "sampler": 3,
      "source": 3,
      "name": "texture1752"
    }
  ],
  "samplers": [
    {
      "magFilter": 9729,
      "minFilter": 9985,
      "wrapS": 10497,
      "wrapT": 10497
    },
    {
      "magFilter": 9729,
      "minFilter": 9985,
      "wrapS": 10497,
      "wrapT": 10497
    },
    {
      "magFilter": 9729,
      "minFilter": 9985,
      "wrapS": 10497,
      "wrapT": 10497
    },
    {
      "magFilter": 9729,
      "minFilter": 9985,
      "wrapS": 10497,
      "wrapT": 10497
    }
  ],
  "images": [
    {
      "mimeType": "image/png",
      "uri": "data:image/png;base64,"
    },
    {
      "mimeType": "image/png",
      "uri": "data:image/png;base64,"
    },
    {
      "mimeType": "image/png",
      "uri": "data:image/png;base64,"
    },
    {
      "mimeType": "image/png",
      "uri": "data:image/png;base64,"
    }
  ],
  "meshes": [
    {
      "primitives": [
        {
          "mode": 4,
          "attributes": {
            "POSITION": 0,
            "NORMAL": 1
          },
          "indices": 2,
          "material": 0
        }
      ]
    },
    {
      "primitives": [
        {
          "mode": 4,
          "attributes": {
            "POSITION": 3,
            "NORMAL": 4
          },
          "indices": 5,
          "material": 1
        }
      ]
    },
    {
      "primitives": [
        {
          "mode": 4,
          "attributes": {
            "POSITION": 6,
            "NORMAL": 7
          },
          "indices": 8,
          "material": 2
        }
      ]
    },
    {
      "primitives": [
        {
          "mode": 4,
          "attributes": {
            "POSITION": 9,
            "NORMAL": 10
          },
          "indices": 11,
          "material": 3
        }
      ]
    },
    {
      "primitives": [
        {
          "mode": 4,
          "attributes": {
            "POSITION": 12,
            "NORMAL": 13
          },
          "indices": 14,
          "material": 4
        }
      ]
    },
    {
      "primitives": [
        {
          "mode": 4,
          "attributes": {
            "POSITION": 15,
            "NORMAL": 16
          },
          "indices": 17,
          "material": 5
        }
      ]
    },
    {
      "primitives": [
        {
          "mode": 4,
          "attributes": {
            "POSITION": 18,
            "NORMAL": 19
          },
          "indices": 20,
          "material": 6
        }
      ]
    },
    {
      "primitives": [
        {
          "mode": 4,
          "attributes": {
            "POSITION": 21,
            "NORMAL": 22
          },
          "indices": 23,
          "material": 7
        }
      ]
    },
    {
      "primitives": [
        {
          "mode": 4,
          "attributes": {
            "POSITION": 24,
            "NORMAL": 25
          },
          "indices": 26,
          "material": 7
        }
      ]
    },
    {
      "primitives": [
        {
          "mode": 4,
          "attributes": {
            "POSITION": 27,
            "NORMAL": 28
          },
          "indices": 29,
          "material": 8
        }
      ]
    }
  ],
  "extensions": {
    "KHR_lights_punctual": {
      "lights": [
        {
          "name": "DirectionalLight",
          "color": [
            1,
            1,
            1
          ],
          "intensity": 1,
          "type": "directional"
        }
      ]
    }
  },
  "extensionsUsed": [
    "KHR_materials_pbrSpecularGlossiness",
    "KHR_lights_punctual"
  ]
}