{
  "asset": {
    "version": "2.0",
    "generator": "GLTFExporter"
  },
  "scenes": [
    {
      "nodes": [
        3,
        4
      ],
      "name": "Scene"
    }
  ],
  "scene": 0,
  "nodes": [
    {
      "matrix": [
        0.0010000000474974513,
        0,
        0,
        0,
        0,
        0.0010000000474974513,
        0,
        0,
        0,
        0,
        0.0010000000474974513,
        0,
        0.009952881373465061,
        0.17320460081100464,
        -0.4584134817123413,
        1
      ],
      "name": "mesh_id290",
      "mesh": 0
    },
    {
      "matrix": [
        0.0010000000474974513,
        0,
        0,
        0,
        0,
        0.0010000000474974513,
        0,
        0,
        0,
        0,
        0.0010000000474974513,
        0,
        0.010714295320212841,
        0.16491936147212982,
        0.2659085988998413,
        1
      ],
      "name": "mesh_id296",
      "mesh": 1
    },
    {
      "name": "root",
      "extras": {
        "name": "root"
      },
      "children": [
        0,
        1
      ]
    },
    {
      "name": "DoubelHelixStrands.glb",
      "children": [
        2
      ]
    },
    {
      "matrix": [
        1,
        0,
        0,
        0,
        0,
        1,
        0,
        0,
        0,
        0,
        1,
        0,
        5,
        10,
        7.5,
        1
      ],
      "name": "DirectionalLight",
      "extensions": {
        "KHR_lights_punctual": {
          "light": 0
        }
      }
    }
  ],
  "bufferViews": [
    {
      "buffer": 0,
      "byteOffset": 0,
      "byteLength": 18204,
      "target": 34962,
      "byteStride": 12
    },
    {
      "buffer": 0,
      "byteOffset": 18204,
      "byteLength": 18204,
      "target": 34962,
      "byteStride": 12
    },
    {
      "buffer": 0,
      "byteOffset": 36408,
      "byteLength": 18180,
      "target": 34963
    },
    {
      "buffer": 0,
      "byteOffset": 54588,
      "byteLength": 18564,
      "target": 34962,
      "byteStride": 12
    },
    {
      "buffer": 0,
      "byteOffset": 73152,
      "byteLength": 18564,
      "target": 34962,
      "byteStride": 12
    },
    {
      "buffer": 0,
      "byteOffset": 91716,
      "byteLength": 18540,
      "target": 34963
    }
  ],
  "buffers": [
    {
      "byteLength": 110256,
      "uri": "data:application/octet-stream;base64,"
    }
  ],
  "accessors": [
    {
      "bufferView": 0,
      "componentType": 5126,
      "count": 1517,
      "max": [
        -66.19770050048828,
        414.1588134765625,
        965.8809204101562
      ],
      "min": [
        -368.30908203125,
        -506.9117431640625,
        920.3834228515625
      ],
      "type": "VEC3"
    },
    {
      "bufferView": 1,
      "componentType": 5126,
      "count": 1517,
      "max": [
        0.9945176839828491,
        0.9972558617591858,
        1
      ],
      "min": [
        -0.9945176839828491,
        -0.9999481439590454,
        -0.9781477451324463
      ],
      "type": "VEC3"
    },
    {
      "bufferView": 2,
      "componentType": 5123,
      "count": 9090,
      "max": [
        1516
      ],
      "min": [
        0
      ],
      "type": "SCALAR"
    },
    {
      "bufferView": 3,
      "componentType": 5126,
      "count": 1547,
      "max": [
        -102.53723907470703,
        421.7074279785156,
        245.88095092773438
      ],
      "min": [
        -444.031982421875,
        -528.823486328125,
        200.3833770751953
      ],
      "type": "VEC3"
    },
    {
      "bufferView": 4,
      "componentType": 5126,
      "count": 1547,
      "max": [
        0.994521975517273,
        0.9946603775024414,
        1
      ],
      "min": [
        -0.994521975517273,
        -0.9970998167991638,
        -0.9781477451324463
      ],
      "type": "VEC3"
    },
    {
      "bufferView": 5,
      "componentType": 5123,
      "count": 9270,
      "max": [
        1546
      ],
      "min": [
        0
      ],
      "type": "SCALAR"
    }
  ],
  "materials": [
    {
      "pbrMetallicRoughness": {
        "baseColorTexture": {
          "index": 0
        }
      },
      "extensions": {
        "KHR_materials_pbrSpecularGlossiness": {
          "specularFactor": [
            1,
            1,
            1
          ],
          "glossinessFactor": 1,
          "diffuseTexture": {
            "index": 0
          },
          "specularGlossinessTexture": {
            "index": 1
          }
        }
      },
      "doubleSided": true,
      "name": "472",
      "extras": {
        "MSFT_sRGBFactors": false
      }
    },
    {
      "pbrMetallicRoughness": {
        "baseColorTexture": {
          "index": 0
        }
      },
      "extensions": {
        "KHR_materials_pbrSpecularGlossiness": {
          "specularFactor": [
            1,
            1,
            1
          ],
          "glossinessFactor": 1,
          "diffuseTexture": {
            "index": 0
          },
          "specularGlossinessTexture": {
            "index": 1
          }
        }
      },
      "doubleSided": true,
      "name": "474",
      "extras": {
        "MSFT_sRGBFactors": false
      }
    }
  ],
  "textures": [
    {
      "sampler": 0,
      "source": 0,
      "name": "texture7854"
    },
    {
      "sampler": 1,
      "source": 1,
      "name": "texture7855"
    }
  ],
  "samplers": [
    {
      "magFilter": 9729,
      "minFilter": 9985,
      "wrapS": 10497,
      "wrapT": 10497
    },
    {
      "magFilter": 9729,
      "minFilter": 9985,
      "wrapS": 10497,
      "wrapT": 10497
    }
  ],
  "images": [
    {
      "mimeType": "image/png",
      "uri": "data:image/png;base64,"
    },
    {
      "mimeType": "image/png",
      "uri": "data:image/png;base64,"
    }
  ],
  "meshes": [
    {
      "primitives": [
        {
          "mode": 4,
          "attributes": {
            "POSITION": 0,
            "NORMAL": 1
          },
          "indices": 2,
          "material": 0
        }
      ]
    },
    {
      "primitives": [
        {
          "mode": 4,
          "attributes": {
            "POSITION": 3,
            "NORMAL": 4
          },
          "indices": 5,
          "material": 1
        }
      ]
    }
  ],
  "extensions": {
    "KHR_lights_punctual": {
      "lights": [
        {
          "name": "DirectionalLight",
          "color": [
            1,
            1,
            1
          ],
          "intensity": 1,
          "type": "directional"
        }
      ]
    }
  },
  "extensionsUsed": [
    "KHR_materials_pbrSpecularGlossiness",
    "KHR_lights_punctual"
  ]
}